<?xml version="1.0" encoding="utf-8" standalone="no"?>
<!DOCTYPE svg PUBLIC "-//W3C//DTD SVG 1.1//EN"
  "http://www.w3.org/Graphics/SVG/1.1/DTD/svg11.dtd">
<svg xmlns:xlink="http://www.w3.org/1999/xlink" width="1615.68pt" height="925.92pt" viewBox="0 0 1615.68 925.92" xmlns="http://www.w3.org/2000/svg" version="1.1">
 <metadata>
  <rdf:RDF xmlns:dc="http://purl.org/dc/elements/1.1/" xmlns:cc="http://creativecommons.org/ns#" xmlns:rdf="http://www.w3.org/1999/02/22-rdf-syntax-ns#">
   <cc:Work>
    <dc:type rdf:resource="http://purl.org/dc/dcmitype/StillImage"/>
    <dc:date>2023-02-06T18:49:15.223104</dc:date>
    <dc:format>image/svg+xml</dc:format>
    <dc:creator>
     <cc:Agent>
      <dc:title>Matplotlib v3.5.1, https://matplotlib.org/</dc:title>
     </cc:Agent>
    </dc:creator>
   </cc:Work>
  </rdf:RDF>
 </metadata>
 <defs>
  <style type="text/css">*{stroke-linejoin: round; stroke-linecap: butt}</style>
 </defs>
 <g id="figure_1">
  <g id="patch_1">
   <path d="M 0 925.92 
L 1615.68 925.92 
L 1615.68 0 
L 0 0 
z
" style="fill: #ffffff"/>
  </g>
  <g id="axes_1">
   <g id="patch_2">
    <path d="M 201.96 320.804047 
L 1454.112 320.804047 
L 1454.112 111.1104 
L 201.96 111.1104 
z
" style="fill: #ffffff"/>
   </g>
   <g id="matplotlib.axis_1">
    <g id="xtick_1">
     <g id="line2d_1">
      <defs>
       <path id="mcbe12354a2" d="M 0 0 
L 0 3.5 
" style="stroke: #000000; stroke-width: 0.8"/>
      </defs>
      <g>
       <use xlink:href="#mcbe12354a2" x="220.679868" y="320.804047" style="stroke: #000000; stroke-width: 0.8"/>
      </g>
     </g>
     <g id="text_1">
      <!-- 2023-01-23 -->
      <g transform="translate(191.622055 335.402485)scale(0.1 -0.1)">
       <defs>
        <path id="DejaVuSans-32" d="M 1228 531 
L 3431 531 
L 3431 0 
L 469 0 
L 469 531 
Q 828 903 1448 1529 
Q 2069 2156 2228 2338 
Q 2531 2678 2651 2914 
Q 2772 3150 2772 3378 
Q 2772 3750 2511 3984 
Q 2250 4219 1831 4219 
Q 1534 4219 1204 4116 
Q 875 4013 500 3803 
L 500 4441 
Q 881 4594 1212 4672 
Q 1544 4750 1819 4750 
Q 2544 4750 2975 4387 
Q 3406 4025 3406 3419 
Q 3406 3131 3298 2873 
Q 3191 2616 2906 2266 
Q 2828 2175 2409 1742 
Q 1991 1309 1228 531 
z
" transform="scale(0.015625)"/>
        <path id="DejaVuSans-30" d="M 2034 4250 
Q 1547 4250 1301 3770 
Q 1056 3291 1056 2328 
Q 1056 1369 1301 889 
Q 1547 409 2034 409 
Q 2525 409 2770 889 
Q 3016 1369 3016 2328 
Q 3016 3291 2770 3770 
Q 2525 4250 2034 4250 
z
M 2034 4750 
Q 2819 4750 3233 4129 
Q 3647 3509 3647 2328 
Q 3647 1150 3233 529 
Q 2819 -91 2034 -91 
Q 1250 -91 836 529 
Q 422 1150 422 2328 
Q 422 3509 836 4129 
Q 1250 4750 2034 4750 
z
" transform="scale(0.015625)"/>
        <path id="DejaVuSans-33" d="M 2597 2516 
Q 3050 2419 3304 2112 
Q 3559 1806 3559 1356 
Q 3559 666 3084 287 
Q 2609 -91 1734 -91 
Q 1441 -91 1130 -33 
Q 819 25 488 141 
L 488 750 
Q 750 597 1062 519 
Q 1375 441 1716 441 
Q 2309 441 2620 675 
Q 2931 909 2931 1356 
Q 2931 1769 2642 2001 
Q 2353 2234 1838 2234 
L 1294 2234 
L 1294 2753 
L 1863 2753 
Q 2328 2753 2575 2939 
Q 2822 3125 2822 3475 
Q 2822 3834 2567 4026 
Q 2313 4219 1838 4219 
Q 1578 4219 1281 4162 
Q 984 4106 628 3988 
L 628 4550 
Q 988 4650 1302 4700 
Q 1616 4750 1894 4750 
Q 2613 4750 3031 4423 
Q 3450 4097 3450 3541 
Q 3450 3153 3228 2886 
Q 3006 2619 2597 2516 
z
" transform="scale(0.015625)"/>
        <path id="DejaVuSans-2d" d="M 313 2009 
L 1997 2009 
L 1997 1497 
L 313 1497 
L 313 2009 
z
" transform="scale(0.015625)"/>
        <path id="DejaVuSans-31" d="M 794 531 
L 1825 531 
L 1825 4091 
L 703 3866 
L 703 4441 
L 1819 4666 
L 2450 4666 
L 2450 531 
L 3481 531 
L 3481 0 
L 794 0 
L 794 531 
z
" transform="scale(0.015625)"/>
       </defs>
       <use xlink:href="#DejaVuSans-32"/>
       <use xlink:href="#DejaVuSans-30" x="63.623047"/>
       <use xlink:href="#DejaVuSans-32" x="127.246094"/>
       <use xlink:href="#DejaVuSans-33" x="190.869141"/>
       <use xlink:href="#DejaVuSans-2d" x="254.492188"/>
       <use xlink:href="#DejaVuSans-30" x="290.576172"/>
       <use xlink:href="#DejaVuSans-31" x="354.199219"/>
       <use xlink:href="#DejaVuSans-2d" x="417.822266"/>
       <use xlink:href="#DejaVuSans-32" x="453.90625"/>
       <use xlink:href="#DejaVuSans-33" x="517.529297"/>
      </g>
     </g>
    </g>
    <g id="xtick_2">
     <g id="line2d_2">
      <g>
       <use xlink:href="#mcbe12354a2" x="334.988152" y="320.804047" style="stroke: #000000; stroke-width: 0.8"/>
      </g>
     </g>
     <g id="text_2">
      <!-- 2023-01-24 -->
      <g transform="translate(305.93034 335.402485)scale(0.1 -0.1)">
       <defs>
        <path id="DejaVuSans-34" d="M 2419 4116 
L 825 1625 
L 2419 1625 
L 2419 4116 
z
M 2253 4666 
L 3047 4666 
L 3047 1625 
L 3713 1625 
L 3713 1100 
L 3047 1100 
L 3047 0 
L 2419 0 
L 2419 1100 
L 313 1100 
L 313 1709 
L 2253 4666 
z
" transform="scale(0.015625)"/>
       </defs>
       <use xlink:href="#DejaVuSans-32"/>
       <use xlink:href="#DejaVuSans-30" x="63.623047"/>
       <use xlink:href="#DejaVuSans-32" x="127.246094"/>
       <use xlink:href="#DejaVuSans-33" x="190.869141"/>
       <use xlink:href="#DejaVuSans-2d" x="254.492188"/>
       <use xlink:href="#DejaVuSans-30" x="290.576172"/>
       <use xlink:href="#DejaVuSans-31" x="354.199219"/>
       <use xlink:href="#DejaVuSans-2d" x="417.822266"/>
       <use xlink:href="#DejaVuSans-32" x="453.90625"/>
       <use xlink:href="#DejaVuSans-34" x="517.529297"/>
      </g>
     </g>
    </g>
    <g id="xtick_3">
     <g id="line2d_3">
      <g>
       <use xlink:href="#mcbe12354a2" x="449.296437" y="320.804047" style="stroke: #000000; stroke-width: 0.8"/>
      </g>
     </g>
     <g id="text_3">
      <!-- 2023-01-25 -->
      <g transform="translate(420.238624 335.402485)scale(0.1 -0.1)">
       <defs>
        <path id="DejaVuSans-35" d="M 691 4666 
L 3169 4666 
L 3169 4134 
L 1269 4134 
L 1269 2991 
Q 1406 3038 1543 3061 
Q 1681 3084 1819 3084 
Q 2600 3084 3056 2656 
Q 3513 2228 3513 1497 
Q 3513 744 3044 326 
Q 2575 -91 1722 -91 
Q 1428 -91 1123 -41 
Q 819 9 494 109 
L 494 744 
Q 775 591 1075 516 
Q 1375 441 1709 441 
Q 2250 441 2565 725 
Q 2881 1009 2881 1497 
Q 2881 1984 2565 2268 
Q 2250 2553 1709 2553 
Q 1456 2553 1204 2497 
Q 953 2441 691 2322 
L 691 4666 
z
" transform="scale(0.015625)"/>
       </defs>
       <use xlink:href="#DejaVuSans-32"/>
       <use xlink:href="#DejaVuSans-30" x="63.623047"/>
       <use xlink:href="#DejaVuSans-32" x="127.246094"/>
       <use xlink:href="#DejaVuSans-33" x="190.869141"/>
       <use xlink:href="#DejaVuSans-2d" x="254.492188"/>
       <use xlink:href="#DejaVuSans-30" x="290.576172"/>
       <use xlink:href="#DejaVuSans-31" x="354.199219"/>
       <use xlink:href="#DejaVuSans-2d" x="417.822266"/>
       <use xlink:href="#DejaVuSans-32" x="453.90625"/>
       <use xlink:href="#DejaVuSans-35" x="517.529297"/>
      </g>
     </g>
    </g>
    <g id="xtick_4">
     <g id="line2d_4">
      <g>
       <use xlink:href="#mcbe12354a2" x="563.604721" y="320.804047" style="stroke: #000000; stroke-width: 0.8"/>
      </g>
     </g>
     <g id="text_4">
      <!-- 2023-01-26 -->
      <g transform="translate(534.546909 335.402485)scale(0.1 -0.1)">
       <defs>
        <path id="DejaVuSans-36" d="M 2113 2584 
Q 1688 2584 1439 2293 
Q 1191 2003 1191 1497 
Q 1191 994 1439 701 
Q 1688 409 2113 409 
Q 2538 409 2786 701 
Q 3034 994 3034 1497 
Q 3034 2003 2786 2293 
Q 2538 2584 2113 2584 
z
M 3366 4563 
L 3366 3988 
Q 3128 4100 2886 4159 
Q 2644 4219 2406 4219 
Q 1781 4219 1451 3797 
Q 1122 3375 1075 2522 
Q 1259 2794 1537 2939 
Q 1816 3084 2150 3084 
Q 2853 3084 3261 2657 
Q 3669 2231 3669 1497 
Q 3669 778 3244 343 
Q 2819 -91 2113 -91 
Q 1303 -91 875 529 
Q 447 1150 447 2328 
Q 447 3434 972 4092 
Q 1497 4750 2381 4750 
Q 2619 4750 2861 4703 
Q 3103 4656 3366 4563 
z
" transform="scale(0.015625)"/>
       </defs>
       <use xlink:href="#DejaVuSans-32"/>
       <use xlink:href="#DejaVuSans-30" x="63.623047"/>
       <use xlink:href="#DejaVuSans-32" x="127.246094"/>
       <use xlink:href="#DejaVuSans-33" x="190.869141"/>
       <use xlink:href="#DejaVuSans-2d" x="254.492188"/>
       <use xlink:href="#DejaVuSans-30" x="290.576172"/>
       <use xlink:href="#DejaVuSans-31" x="354.199219"/>
       <use xlink:href="#DejaVuSans-2d" x="417.822266"/>
       <use xlink:href="#DejaVuSans-32" x="453.90625"/>
       <use xlink:href="#DejaVuSans-36" x="517.529297"/>
      </g>
     </g>
    </g>
    <g id="xtick_5">
     <g id="line2d_5">
      <g>
       <use xlink:href="#mcbe12354a2" x="677.913006" y="320.804047" style="stroke: #000000; stroke-width: 0.8"/>
      </g>
     </g>
     <g id="text_5">
      <!-- 2023-01-27 -->
      <g transform="translate(648.855193 335.402485)scale(0.1 -0.1)">
       <defs>
        <path id="DejaVuSans-37" d="M 525 4666 
L 3525 4666 
L 3525 4397 
L 1831 0 
L 1172 0 
L 2766 4134 
L 525 4134 
L 525 4666 
z
" transform="scale(0.015625)"/>
       </defs>
       <use xlink:href="#DejaVuSans-32"/>
       <use xlink:href="#DejaVuSans-30" x="63.623047"/>
       <use xlink:href="#DejaVuSans-32" x="127.246094"/>
       <use xlink:href="#DejaVuSans-33" x="190.869141"/>
       <use xlink:href="#DejaVuSans-2d" x="254.492188"/>
       <use xlink:href="#DejaVuSans-30" x="290.576172"/>
       <use xlink:href="#DejaVuSans-31" x="354.199219"/>
       <use xlink:href="#DejaVuSans-2d" x="417.822266"/>
       <use xlink:href="#DejaVuSans-32" x="453.90625"/>
       <use xlink:href="#DejaVuSans-37" x="517.529297"/>
      </g>
     </g>
    </g>
    <g id="xtick_6">
     <g id="line2d_6">
      <g>
       <use xlink:href="#mcbe12354a2" x="792.22129" y="320.804047" style="stroke: #000000; stroke-width: 0.8"/>
      </g>
     </g>
     <g id="text_6">
      <!-- 2023-01-28 -->
      <g transform="translate(763.163478 335.402485)scale(0.1 -0.1)">
       <defs>
        <path id="DejaVuSans-38" d="M 2034 2216 
Q 1584 2216 1326 1975 
Q 1069 1734 1069 1313 
Q 1069 891 1326 650 
Q 1584 409 2034 409 
Q 2484 409 2743 651 
Q 3003 894 3003 1313 
Q 3003 1734 2745 1975 
Q 2488 2216 2034 2216 
z
M 1403 2484 
Q 997 2584 770 2862 
Q 544 3141 544 3541 
Q 544 4100 942 4425 
Q 1341 4750 2034 4750 
Q 2731 4750 3128 4425 
Q 3525 4100 3525 3541 
Q 3525 3141 3298 2862 
Q 3072 2584 2669 2484 
Q 3125 2378 3379 2068 
Q 3634 1759 3634 1313 
Q 3634 634 3220 271 
Q 2806 -91 2034 -91 
Q 1263 -91 848 271 
Q 434 634 434 1313 
Q 434 1759 690 2068 
Q 947 2378 1403 2484 
z
M 1172 3481 
Q 1172 3119 1398 2916 
Q 1625 2713 2034 2713 
Q 2441 2713 2670 2916 
Q 2900 3119 2900 3481 
Q 2900 3844 2670 4047 
Q 2441 4250 2034 4250 
Q 1625 4250 1398 4047 
Q 1172 3844 1172 3481 
z
" transform="scale(0.015625)"/>
       </defs>
       <use xlink:href="#DejaVuSans-32"/>
       <use xlink:href="#DejaVuSans-30" x="63.623047"/>
       <use xlink:href="#DejaVuSans-32" x="127.246094"/>
       <use xlink:href="#DejaVuSans-33" x="190.869141"/>
       <use xlink:href="#DejaVuSans-2d" x="254.492188"/>
       <use xlink:href="#DejaVuSans-30" x="290.576172"/>
       <use xlink:href="#DejaVuSans-31" x="354.199219"/>
       <use xlink:href="#DejaVuSans-2d" x="417.822266"/>
       <use xlink:href="#DejaVuSans-32" x="453.90625"/>
       <use xlink:href="#DejaVuSans-38" x="517.529297"/>
      </g>
     </g>
    </g>
    <g id="xtick_7">
     <g id="line2d_7">
      <g>
       <use xlink:href="#mcbe12354a2" x="906.529575" y="320.804047" style="stroke: #000000; stroke-width: 0.8"/>
      </g>
     </g>
     <g id="text_7">
      <!-- 2023-01-29 -->
      <g transform="translate(877.471762 335.402485)scale(0.1 -0.1)">
       <defs>
        <path id="DejaVuSans-39" d="M 703 97 
L 703 672 
Q 941 559 1184 500 
Q 1428 441 1663 441 
Q 2288 441 2617 861 
Q 2947 1281 2994 2138 
Q 2813 1869 2534 1725 
Q 2256 1581 1919 1581 
Q 1219 1581 811 2004 
Q 403 2428 403 3163 
Q 403 3881 828 4315 
Q 1253 4750 1959 4750 
Q 2769 4750 3195 4129 
Q 3622 3509 3622 2328 
Q 3622 1225 3098 567 
Q 2575 -91 1691 -91 
Q 1453 -91 1209 -44 
Q 966 3 703 97 
z
M 1959 2075 
Q 2384 2075 2632 2365 
Q 2881 2656 2881 3163 
Q 2881 3666 2632 3958 
Q 2384 4250 1959 4250 
Q 1534 4250 1286 3958 
Q 1038 3666 1038 3163 
Q 1038 2656 1286 2365 
Q 1534 2075 1959 2075 
z
" transform="scale(0.015625)"/>
       </defs>
       <use xlink:href="#DejaVuSans-32"/>
       <use xlink:href="#DejaVuSans-30" x="63.623047"/>
       <use xlink:href="#DejaVuSans-32" x="127.246094"/>
       <use xlink:href="#DejaVuSans-33" x="190.869141"/>
       <use xlink:href="#DejaVuSans-2d" x="254.492188"/>
       <use xlink:href="#DejaVuSans-30" x="290.576172"/>
       <use xlink:href="#DejaVuSans-31" x="354.199219"/>
       <use xlink:href="#DejaVuSans-2d" x="417.822266"/>
       <use xlink:href="#DejaVuSans-32" x="453.90625"/>
       <use xlink:href="#DejaVuSans-39" x="517.529297"/>
      </g>
     </g>
    </g>
    <g id="xtick_8">
     <g id="line2d_8">
      <g>
       <use xlink:href="#mcbe12354a2" x="1020.837859" y="320.804047" style="stroke: #000000; stroke-width: 0.8"/>
      </g>
     </g>
     <g id="text_8">
      <!-- 2023-01-30 -->
      <g transform="translate(991.780047 335.402485)scale(0.1 -0.1)">
       <use xlink:href="#DejaVuSans-32"/>
       <use xlink:href="#DejaVuSans-30" x="63.623047"/>
       <use xlink:href="#DejaVuSans-32" x="127.246094"/>
       <use xlink:href="#DejaVuSans-33" x="190.869141"/>
       <use xlink:href="#DejaVuSans-2d" x="254.492188"/>
       <use xlink:href="#DejaVuSans-30" x="290.576172"/>
       <use xlink:href="#DejaVuSans-31" x="354.199219"/>
       <use xlink:href="#DejaVuSans-2d" x="417.822266"/>
       <use xlink:href="#DejaVuSans-33" x="453.90625"/>
       <use xlink:href="#DejaVuSans-30" x="517.529297"/>
      </g>
     </g>
    </g>
    <g id="xtick_9">
     <g id="line2d_9">
      <g>
       <use xlink:href="#mcbe12354a2" x="1135.146144" y="320.804047" style="stroke: #000000; stroke-width: 0.8"/>
      </g>
     </g>
     <g id="text_9">
      <!-- 2023-01-31 -->
      <g transform="translate(1106.088331 335.402485)scale(0.1 -0.1)">
       <use xlink:href="#DejaVuSans-32"/>
       <use xlink:href="#DejaVuSans-30" x="63.623047"/>
       <use xlink:href="#DejaVuSans-32" x="127.246094"/>
       <use xlink:href="#DejaVuSans-33" x="190.869141"/>
       <use xlink:href="#DejaVuSans-2d" x="254.492188"/>
       <use xlink:href="#DejaVuSans-30" x="290.576172"/>
       <use xlink:href="#DejaVuSans-31" x="354.199219"/>
       <use xlink:href="#DejaVuSans-2d" x="417.822266"/>
       <use xlink:href="#DejaVuSans-33" x="453.90625"/>
       <use xlink:href="#DejaVuSans-31" x="517.529297"/>
      </g>
     </g>
    </g>
    <g id="xtick_10">
     <g id="line2d_10">
      <g>
       <use xlink:href="#mcbe12354a2" x="1249.454428" y="320.804047" style="stroke: #000000; stroke-width: 0.8"/>
      </g>
     </g>
     <g id="text_10">
      <!-- 2023-02-01 -->
      <g transform="translate(1220.396616 335.402485)scale(0.1 -0.1)">
       <use xlink:href="#DejaVuSans-32"/>
       <use xlink:href="#DejaVuSans-30" x="63.623047"/>
       <use xlink:href="#DejaVuSans-32" x="127.246094"/>
       <use xlink:href="#DejaVuSans-33" x="190.869141"/>
       <use xlink:href="#DejaVuSans-2d" x="254.492188"/>
       <use xlink:href="#DejaVuSans-30" x="290.576172"/>
       <use xlink:href="#DejaVuSans-32" x="354.199219"/>
       <use xlink:href="#DejaVuSans-2d" x="417.822266"/>
       <use xlink:href="#DejaVuSans-30" x="453.90625"/>
       <use xlink:href="#DejaVuSans-31" x="517.529297"/>
      </g>
     </g>
    </g>
    <g id="xtick_11">
     <g id="line2d_11">
      <g>
       <use xlink:href="#mcbe12354a2" x="1363.762713" y="320.804047" style="stroke: #000000; stroke-width: 0.8"/>
      </g>
     </g>
     <g id="text_11">
      <!-- 2023-02-02 -->
      <g transform="translate(1334.7049 335.402485)scale(0.1 -0.1)">
       <use xlink:href="#DejaVuSans-32"/>
       <use xlink:href="#DejaVuSans-30" x="63.623047"/>
       <use xlink:href="#DejaVuSans-32" x="127.246094"/>
       <use xlink:href="#DejaVuSans-33" x="190.869141"/>
       <use xlink:href="#DejaVuSans-2d" x="254.492188"/>
       <use xlink:href="#DejaVuSans-30" x="290.576172"/>
       <use xlink:href="#DejaVuSans-32" x="354.199219"/>
       <use xlink:href="#DejaVuSans-2d" x="417.822266"/>
       <use xlink:href="#DejaVuSans-30" x="453.90625"/>
       <use xlink:href="#DejaVuSans-32" x="517.529297"/>
      </g>
     </g>
    </g>
    <g id="text_12">
     <!-- date -->
     <g transform="translate(816.761 349.08061)scale(0.1 -0.1)">
      <defs>
       <path id="DejaVuSans-64" d="M 2906 2969 
L 2906 4863 
L 3481 4863 
L 3481 0 
L 2906 0 
L 2906 525 
Q 2725 213 2448 61 
Q 2172 -91 1784 -91 
Q 1150 -91 751 415 
Q 353 922 353 1747 
Q 353 2572 751 3078 
Q 1150 3584 1784 3584 
Q 2172 3584 2448 3432 
Q 2725 3281 2906 2969 
z
M 947 1747 
Q 947 1113 1208 752 
Q 1469 391 1925 391 
Q 2381 391 2643 752 
Q 2906 1113 2906 1747 
Q 2906 2381 2643 2742 
Q 2381 3103 1925 3103 
Q 1469 3103 1208 2742 
Q 947 2381 947 1747 
z
" transform="scale(0.015625)"/>
       <path id="DejaVuSans-61" d="M 2194 1759 
Q 1497 1759 1228 1600 
Q 959 1441 959 1056 
Q 959 750 1161 570 
Q 1363 391 1709 391 
Q 2188 391 2477 730 
Q 2766 1069 2766 1631 
L 2766 1759 
L 2194 1759 
z
M 3341 1997 
L 3341 0 
L 2766 0 
L 2766 531 
Q 2569 213 2275 61 
Q 1981 -91 1556 -91 
Q 1019 -91 701 211 
Q 384 513 384 1019 
Q 384 1609 779 1909 
Q 1175 2209 1959 2209 
L 2766 2209 
L 2766 2266 
Q 2766 2663 2505 2880 
Q 2244 3097 1772 3097 
Q 1472 3097 1187 3025 
Q 903 2953 641 2809 
L 641 3341 
Q 956 3463 1253 3523 
Q 1550 3584 1831 3584 
Q 2591 3584 2966 3190 
Q 3341 2797 3341 1997 
z
" transform="scale(0.015625)"/>
       <path id="DejaVuSans-74" d="M 1172 4494 
L 1172 3500 
L 2356 3500 
L 2356 3053 
L 1172 3053 
L 1172 1153 
Q 1172 725 1289 603 
Q 1406 481 1766 481 
L 2356 481 
L 2356 0 
L 1766 0 
Q 1100 0 847 248 
Q 594 497 594 1153 
L 594 3053 
L 172 3053 
L 172 3500 
L 594 3500 
L 594 4494 
L 1172 4494 
z
" transform="scale(0.015625)"/>
       <path id="DejaVuSans-65" d="M 3597 1894 
L 3597 1613 
L 953 1613 
Q 991 1019 1311 708 
Q 1631 397 2203 397 
Q 2534 397 2845 478 
Q 3156 559 3463 722 
L 3463 178 
Q 3153 47 2828 -22 
Q 2503 -91 2169 -91 
Q 1331 -91 842 396 
Q 353 884 353 1716 
Q 353 2575 817 3079 
Q 1281 3584 2069 3584 
Q 2775 3584 3186 3129 
Q 3597 2675 3597 1894 
z
M 3022 2063 
Q 3016 2534 2758 2815 
Q 2500 3097 2075 3097 
Q 1594 3097 1305 2825 
Q 1016 2553 972 2059 
L 3022 2063 
z
" transform="scale(0.015625)"/>
      </defs>
      <use xlink:href="#DejaVuSans-64"/>
      <use xlink:href="#DejaVuSans-61" x="63.476562"/>
      <use xlink:href="#DejaVuSans-74" x="124.755859"/>
      <use xlink:href="#DejaVuSans-65" x="163.964844"/>
     </g>
    </g>
   </g>
   <g id="matplotlib.axis_2">
    <g id="ytick_1">
     <g id="line2d_12">
      <defs>
       <path id="me56e59ad16" d="M 0 0 
L -3.5 0 
" style="stroke: #000000; stroke-width: 0.8"/>
      </defs>
      <g>
       <use xlink:href="#me56e59ad16" x="201.96" y="311.272518" style="stroke: #000000; stroke-width: 0.8"/>
      </g>
     </g>
     <g id="text_13">
      <!-- 0 -->
      <g transform="translate(188.5975 315.071736)scale(0.1 -0.1)">
       <use xlink:href="#DejaVuSans-30"/>
      </g>
     </g>
    </g>
    <g id="ytick_2">
     <g id="line2d_13">
      <g>
       <use xlink:href="#me56e59ad16" x="201.96" y="274.271239" style="stroke: #000000; stroke-width: 0.8"/>
      </g>
     </g>
     <g id="text_14">
      <!-- 2000 -->
      <g transform="translate(169.51 278.070458)scale(0.1 -0.1)">
       <use xlink:href="#DejaVuSans-32"/>
       <use xlink:href="#DejaVuSans-30" x="63.623047"/>
       <use xlink:href="#DejaVuSans-30" x="127.246094"/>
       <use xlink:href="#DejaVuSans-30" x="190.869141"/>
      </g>
     </g>
    </g>
    <g id="ytick_3">
     <g id="line2d_14">
      <g>
       <use xlink:href="#me56e59ad16" x="201.96" y="237.26996" style="stroke: #000000; stroke-width: 0.8"/>
      </g>
     </g>
     <g id="text_15">
      <!-- 4000 -->
      <g transform="translate(169.51 241.069179)scale(0.1 -0.1)">
       <use xlink:href="#DejaVuSans-34"/>
       <use xlink:href="#DejaVuSans-30" x="63.623047"/>
       <use xlink:href="#DejaVuSans-30" x="127.246094"/>
       <use xlink:href="#DejaVuSans-30" x="190.869141"/>
      </g>
     </g>
    </g>
    <g id="ytick_4">
     <g id="line2d_15">
      <g>
       <use xlink:href="#me56e59ad16" x="201.96" y="200.268681" style="stroke: #000000; stroke-width: 0.8"/>
      </g>
     </g>
     <g id="text_16">
      <!-- 6000 -->
      <g transform="translate(169.51 204.0679)scale(0.1 -0.1)">
       <use xlink:href="#DejaVuSans-36"/>
       <use xlink:href="#DejaVuSans-30" x="63.623047"/>
       <use xlink:href="#DejaVuSans-30" x="127.246094"/>
       <use xlink:href="#DejaVuSans-30" x="190.869141"/>
      </g>
     </g>
    </g>
    <g id="ytick_5">
     <g id="line2d_16">
      <g>
       <use xlink:href="#me56e59ad16" x="201.96" y="163.267403" style="stroke: #000000; stroke-width: 0.8"/>
      </g>
     </g>
     <g id="text_17">
      <!-- 8000 -->
      <g transform="translate(169.51 167.066621)scale(0.1 -0.1)">
       <use xlink:href="#DejaVuSans-38"/>
       <use xlink:href="#DejaVuSans-30" x="63.623047"/>
       <use xlink:href="#DejaVuSans-30" x="127.246094"/>
       <use xlink:href="#DejaVuSans-30" x="190.869141"/>
      </g>
     </g>
    </g>
    <g id="ytick_6">
     <g id="line2d_17">
      <g>
       <use xlink:href="#me56e59ad16" x="201.96" y="126.266124" style="stroke: #000000; stroke-width: 0.8"/>
      </g>
     </g>
     <g id="text_18">
      <!-- 10000 -->
      <g transform="translate(163.1475 130.065343)scale(0.1 -0.1)">
       <use xlink:href="#DejaVuSans-31"/>
       <use xlink:href="#DejaVuSans-30" x="63.623047"/>
       <use xlink:href="#DejaVuSans-30" x="127.246094"/>
       <use xlink:href="#DejaVuSans-30" x="190.869141"/>
       <use xlink:href="#DejaVuSans-30" x="254.492188"/>
      </g>
     </g>
    </g>
    <g id="text_19">
     <!-- keys pressed -->
     <g transform="translate(157.067813 248.55488)rotate(-90)scale(0.1 -0.1)">
      <defs>
       <path id="DejaVuSans-6b" d="M 581 4863 
L 1159 4863 
L 1159 1991 
L 2875 3500 
L 3609 3500 
L 1753 1863 
L 3688 0 
L 2938 0 
L 1159 1709 
L 1159 0 
L 581 0 
L 581 4863 
z
" transform="scale(0.015625)"/>
       <path id="DejaVuSans-79" d="M 2059 -325 
Q 1816 -950 1584 -1140 
Q 1353 -1331 966 -1331 
L 506 -1331 
L 506 -850 
L 844 -850 
Q 1081 -850 1212 -737 
Q 1344 -625 1503 -206 
L 1606 56 
L 191 3500 
L 800 3500 
L 1894 763 
L 2988 3500 
L 3597 3500 
L 2059 -325 
z
" transform="scale(0.015625)"/>
       <path id="DejaVuSans-73" d="M 2834 3397 
L 2834 2853 
Q 2591 2978 2328 3040 
Q 2066 3103 1784 3103 
Q 1356 3103 1142 2972 
Q 928 2841 928 2578 
Q 928 2378 1081 2264 
Q 1234 2150 1697 2047 
L 1894 2003 
Q 2506 1872 2764 1633 
Q 3022 1394 3022 966 
Q 3022 478 2636 193 
Q 2250 -91 1575 -91 
Q 1294 -91 989 -36 
Q 684 19 347 128 
L 347 722 
Q 666 556 975 473 
Q 1284 391 1588 391 
Q 1994 391 2212 530 
Q 2431 669 2431 922 
Q 2431 1156 2273 1281 
Q 2116 1406 1581 1522 
L 1381 1569 
Q 847 1681 609 1914 
Q 372 2147 372 2553 
Q 372 3047 722 3315 
Q 1072 3584 1716 3584 
Q 2034 3584 2315 3537 
Q 2597 3491 2834 3397 
z
" transform="scale(0.015625)"/>
       <path id="DejaVuSans-20" transform="scale(0.015625)"/>
       <path id="DejaVuSans-70" d="M 1159 525 
L 1159 -1331 
L 581 -1331 
L 581 3500 
L 1159 3500 
L 1159 2969 
Q 1341 3281 1617 3432 
Q 1894 3584 2278 3584 
Q 2916 3584 3314 3078 
Q 3713 2572 3713 1747 
Q 3713 922 3314 415 
Q 2916 -91 2278 -91 
Q 1894 -91 1617 61 
Q 1341 213 1159 525 
z
M 3116 1747 
Q 3116 2381 2855 2742 
Q 2594 3103 2138 3103 
Q 1681 3103 1420 2742 
Q 1159 2381 1159 1747 
Q 1159 1113 1420 752 
Q 1681 391 2138 391 
Q 2594 391 2855 752 
Q 3116 1113 3116 1747 
z
" transform="scale(0.015625)"/>
       <path id="DejaVuSans-72" d="M 2631 2963 
Q 2534 3019 2420 3045 
Q 2306 3072 2169 3072 
Q 1681 3072 1420 2755 
Q 1159 2438 1159 1844 
L 1159 0 
L 581 0 
L 581 3500 
L 1159 3500 
L 1159 2956 
Q 1341 3275 1631 3429 
Q 1922 3584 2338 3584 
Q 2397 3584 2469 3576 
Q 2541 3569 2628 3553 
L 2631 2963 
z
" transform="scale(0.015625)"/>
      </defs>
      <use xlink:href="#DejaVuSans-6b"/>
      <use xlink:href="#DejaVuSans-65" x="54.285156"/>
      <use xlink:href="#DejaVuSans-79" x="115.808594"/>
      <use xlink:href="#DejaVuSans-73" x="174.988281"/>
      <use xlink:href="#DejaVuSans-20" x="227.087891"/>
      <use xlink:href="#DejaVuSans-70" x="258.875"/>
      <use xlink:href="#DejaVuSans-72" x="322.351562"/>
      <use xlink:href="#DejaVuSans-65" x="361.214844"/>
      <use xlink:href="#DejaVuSans-73" x="422.738281"/>
      <use xlink:href="#DejaVuSans-73" x="474.837891"/>
      <use xlink:href="#DejaVuSans-65" x="526.9375"/>
      <use xlink:href="#DejaVuSans-64" x="588.460938"/>
     </g>
    </g>
   </g>
   <g id="line2d_18">
    <path d="M 258.876 305.777828 
L 263.638845 311.272518 
L 268.40169 306.462351 
L 273.164536 303.076734 
L 277.927381 311.272518 
L 320.792987 311.272518 
L 325.555833 304.649289 
L 330.318678 270.164097 
L 335.081523 261.080283 
L 339.844368 197.62309 
L 344.607213 299.894624 
L 349.370059 295.065958 
L 354.132904 303.039733 
L 358.895749 297.267534 
L 363.658594 288.442729 
L 368.421439 303.835261 
L 373.184285 302.558716 
L 377.94713 300.33864 
L 382.709975 306.314346 
L 387.47282 311.272518 
L 430.338427 311.272518 
L 435.101272 307.054372 
L 439.864117 305.759327 
L 444.626962 270.145596 
L 449.389808 302.984231 
L 454.152653 247.352809 
L 458.915498 297.933557 
L 463.678343 306.684359 
L 468.441188 286.389158 
L 473.204033 270.460107 
L 477.966879 267.814516 
L 482.729724 311.272518 
L 487.492569 276.602319 
L 492.255414 268.980056 
L 497.018259 305.999835 
L 501.781105 311.272518 
L 544.646711 311.272518 
L 549.409556 248.795858 
L 554.172402 244.170699 
L 558.935247 174.885804 
L 563.698092 297.841053 
L 568.460937 299.820622 
L 573.223782 295.861485 
L 577.986628 311.272518 
L 582.749473 299.913125 
L 587.512318 306.517853 
L 592.275163 302.780724 
L 597.038008 276.879829 
L 601.800854 301.652185 
L 606.563699 304.020267 
L 611.326544 311.272518 
L 654.192151 311.272518 
L 658.954996 299.48761 
L 663.717841 295.71348 
L 668.480686 303.039733 
L 673.243531 311.272518 
L 678.006377 216.43824 
L 682.769222 264.965417 
L 687.532067 305.796328 
L 692.294912 282.98504 
L 697.057757 302.170203 
L 701.820603 308.16441 
L 706.583448 300.949161 
L 711.346293 288.072716 
L 716.109138 248.425846 
L 720.871983 285.982144 
L 725.634828 310.199481 
L 730.397674 311.272518 
L 773.26328 311.272518 
L 778.026126 304.556786 
L 782.788971 305.27831 
L 787.551816 225.004036 
L 792.314661 244.318704 
L 797.077506 168.965599 
L 801.840351 160.122294 
L 806.603197 154.461098 
L 811.366042 270.016092 
L 816.128887 232.903809 
L 820.891732 184.543138 
L 825.654577 286.907176 
L 830.417423 299.043595 
L 835.180268 175.237316 
L 839.943113 239.786047 
L 844.705958 120.641929 
L 849.468803 305.666824 
L 854.231649 311.272518 
L 887.571565 311.272518 
L 892.33441 188.724282 
L 897.097255 238.694509 
L 901.8601 152.407527 
L 906.622946 297.397038 
L 911.385791 265.03942 
L 916.148636 217.640782 
L 920.911481 256.288617 
L 925.674326 213.718646 
L 930.437172 305.925833 
L 935.200017 311.272518 
L 939.962862 299.210101 
L 944.725707 271.033627 
L 949.488552 204.449826 
L 954.251397 192.294906 
L 959.014243 249.739391 
L 963.777088 311.272518 
L 1001.879849 311.272518 
L 1006.642695 188.816786 
L 1011.40554 179.529465 
L 1016.168385 189.2238 
L 1020.93123 229.425689 
L 1025.694075 291.199324 
L 1030.456921 277.638355 
L 1035.219766 298.433074 
L 1039.982611 303.798259 
L 1044.745456 308.108908 
L 1049.508301 309.163445 
L 1054.271146 172.44372 
L 1059.033992 307.091373 
L 1063.796837 311.272518 
L 1116.188134 311.272518 
L 1120.950979 267.240996 
L 1125.713824 259.193218 
L 1130.476669 167.781559 
L 1135.239515 245.595248 
L 1140.00236 300.431143 
L 1144.765205 199.63966 
L 1149.52805 220.748889 
L 1154.290895 307.8684 
L 1159.053741 311.272518 
L 1163.816586 306.795363 
L 1168.579431 282.522524 
L 1173.342276 283.484557 
L 1178.105121 300.856658 
L 1182.867967 311.272518 
L 1230.496418 311.272518 
L 1235.259264 297.119529 
L 1240.022109 294.880951 
L 1244.784954 253.495021 
L 1249.547799 284.372588 
L 1254.310644 293.160392 
L 1259.07349 214.495673 
L 1263.836335 218.232802 
L 1268.59918 243.116162 
L 1273.362025 311.272518 
L 1278.12487 304.445782 
L 1282.887715 284.687099 
L 1287.650561 289.164254 
L 1292.413406 270.515609 
L 1297.176251 310.143979 
L 1301.939096 311.180014 
L 1311.464787 311.272518 
L 1335.279013 311.272518 
L 1340.041858 305.25981 
L 1344.804703 305.870331 
L 1349.567548 306.832364 
L 1354.330393 308.589925 
L 1359.093238 308.885935 
L 1363.856084 303.557751 
L 1368.618929 311.272518 
L 1373.381774 300.579148 
L 1378.144619 311.272518 
L 1382.907464 292.383365 
L 1387.67031 299.950126 
L 1392.433155 310.847003 
L 1397.196 293.67841 
L 1397.196 293.67841 
" clip-path="url(#p93b8ae68c5)" style="fill: none; stroke: #1f77b4; stroke-width: 1.5; stroke-linecap: square"/>
   </g>
   <g id="patch_3">
    <path d="M 201.96 320.804047 
L 201.96 111.1104 
" style="fill: none; stroke: #000000; stroke-width: 0.8; stroke-linejoin: miter; stroke-linecap: square"/>
   </g>
   <g id="patch_4">
    <path d="M 1454.112 320.804047 
L 1454.112 111.1104 
" style="fill: none; stroke: #000000; stroke-width: 0.8; stroke-linejoin: miter; stroke-linecap: square"/>
   </g>
   <g id="patch_5">
    <path d="M 201.96 320.804047 
L 1454.112 320.804047 
" style="fill: none; stroke: #000000; stroke-width: 0.8; stroke-linejoin: miter; stroke-linecap: square"/>
   </g>
   <g id="patch_6">
    <path d="M 201.96 111.1104 
L 1454.112 111.1104 
" style="fill: none; stroke: #000000; stroke-width: 0.8; stroke-linejoin: miter; stroke-linecap: square"/>
   </g>
  </g>
  <g id="axes_2">
   <g id="patch_7">
    <path d="M 201.96 572.436424 
L 1454.112 572.436424 
L 1454.112 362.742776 
L 201.96 362.742776 
z
" style="fill: #ffffff"/>
   </g>
   <g id="matplotlib.axis_3">
    <g id="xtick_12">
     <g id="line2d_19">
      <g>
       <use xlink:href="#mcbe12354a2" x="287.833497" y="572.436424" style="stroke: #000000; stroke-width: 0.8"/>
      </g>
     </g>
     <g id="text_20">
      <!-- 2023-01-24 -->
      <g transform="translate(258.775685 587.034861)scale(0.1 -0.1)">
       <use xlink:href="#DejaVuSans-32"/>
       <use xlink:href="#DejaVuSans-30" x="63.623047"/>
       <use xlink:href="#DejaVuSans-32" x="127.246094"/>
       <use xlink:href="#DejaVuSans-33" x="190.869141"/>
       <use xlink:href="#DejaVuSans-2d" x="254.492188"/>
       <use xlink:href="#DejaVuSans-30" x="290.576172"/>
       <use xlink:href="#DejaVuSans-31" x="354.199219"/>
       <use xlink:href="#DejaVuSans-2d" x="417.822266"/>
       <use xlink:href="#DejaVuSans-32" x="453.90625"/>
       <use xlink:href="#DejaVuSans-34" x="517.529297"/>
      </g>
     </g>
    </g>
    <g id="xtick_13">
     <g id="line2d_20">
      <g>
       <use xlink:href="#mcbe12354a2" x="402.141782" y="572.436424" style="stroke: #000000; stroke-width: 0.8"/>
      </g>
     </g>
     <g id="text_21">
      <!-- 2023-01-25 -->
      <g transform="translate(373.083969 587.034861)scale(0.1 -0.1)">
       <use xlink:href="#DejaVuSans-32"/>
       <use xlink:href="#DejaVuSans-30" x="63.623047"/>
       <use xlink:href="#DejaVuSans-32" x="127.246094"/>
       <use xlink:href="#DejaVuSans-33" x="190.869141"/>
       <use xlink:href="#DejaVuSans-2d" x="254.492188"/>
       <use xlink:href="#DejaVuSans-30" x="290.576172"/>
       <use xlink:href="#DejaVuSans-31" x="354.199219"/>
       <use xlink:href="#DejaVuSans-2d" x="417.822266"/>
       <use xlink:href="#DejaVuSans-32" x="453.90625"/>
       <use xlink:href="#DejaVuSans-35" x="517.529297"/>
      </g>
     </g>
    </g>
    <g id="xtick_14">
     <g id="line2d_21">
      <g>
       <use xlink:href="#mcbe12354a2" x="516.450066" y="572.436424" style="stroke: #000000; stroke-width: 0.8"/>
      </g>
     </g>
     <g id="text_22">
      <!-- 2023-01-26 -->
      <g transform="translate(487.392254 587.034861)scale(0.1 -0.1)">
       <use xlink:href="#DejaVuSans-32"/>
       <use xlink:href="#DejaVuSans-30" x="63.623047"/>
       <use xlink:href="#DejaVuSans-32" x="127.246094"/>
       <use xlink:href="#DejaVuSans-33" x="190.869141"/>
       <use xlink:href="#DejaVuSans-2d" x="254.492188"/>
       <use xlink:href="#DejaVuSans-30" x="290.576172"/>
       <use xlink:href="#DejaVuSans-31" x="354.199219"/>
       <use xlink:href="#DejaVuSans-2d" x="417.822266"/>
       <use xlink:href="#DejaVuSans-32" x="453.90625"/>
       <use xlink:href="#DejaVuSans-36" x="517.529297"/>
      </g>
     </g>
    </g>
    <g id="xtick_15">
     <g id="line2d_22">
      <g>
       <use xlink:href="#mcbe12354a2" x="630.758351" y="572.436424" style="stroke: #000000; stroke-width: 0.8"/>
      </g>
     </g>
     <g id="text_23">
      <!-- 2023-01-27 -->
      <g transform="translate(601.700538 587.034861)scale(0.1 -0.1)">
       <use xlink:href="#DejaVuSans-32"/>
       <use xlink:href="#DejaVuSans-30" x="63.623047"/>
       <use xlink:href="#DejaVuSans-32" x="127.246094"/>
       <use xlink:href="#DejaVuSans-33" x="190.869141"/>
       <use xlink:href="#DejaVuSans-2d" x="254.492188"/>
       <use xlink:href="#DejaVuSans-30" x="290.576172"/>
       <use xlink:href="#DejaVuSans-31" x="354.199219"/>
       <use xlink:href="#DejaVuSans-2d" x="417.822266"/>
       <use xlink:href="#DejaVuSans-32" x="453.90625"/>
       <use xlink:href="#DejaVuSans-37" x="517.529297"/>
      </g>
     </g>
    </g>
    <g id="xtick_16">
     <g id="line2d_23">
      <g>
       <use xlink:href="#mcbe12354a2" x="745.066635" y="572.436424" style="stroke: #000000; stroke-width: 0.8"/>
      </g>
     </g>
     <g id="text_24">
      <!-- 2023-01-28 -->
      <g transform="translate(716.008823 587.034861)scale(0.1 -0.1)">
       <use xlink:href="#DejaVuSans-32"/>
       <use xlink:href="#DejaVuSans-30" x="63.623047"/>
       <use xlink:href="#DejaVuSans-32" x="127.246094"/>
       <use xlink:href="#DejaVuSans-33" x="190.869141"/>
       <use xlink:href="#DejaVuSans-2d" x="254.492188"/>
       <use xlink:href="#DejaVuSans-30" x="290.576172"/>
       <use xlink:href="#DejaVuSans-31" x="354.199219"/>
       <use xlink:href="#DejaVuSans-2d" x="417.822266"/>
       <use xlink:href="#DejaVuSans-32" x="453.90625"/>
       <use xlink:href="#DejaVuSans-38" x="517.529297"/>
      </g>
     </g>
    </g>
    <g id="xtick_17">
     <g id="line2d_24">
      <g>
       <use xlink:href="#mcbe12354a2" x="859.37492" y="572.436424" style="stroke: #000000; stroke-width: 0.8"/>
      </g>
     </g>
     <g id="text_25">
      <!-- 2023-01-29 -->
      <g transform="translate(830.317107 587.034861)scale(0.1 -0.1)">
       <use xlink:href="#DejaVuSans-32"/>
       <use xlink:href="#DejaVuSans-30" x="63.623047"/>
       <use xlink:href="#DejaVuSans-32" x="127.246094"/>
       <use xlink:href="#DejaVuSans-33" x="190.869141"/>
       <use xlink:href="#DejaVuSans-2d" x="254.492188"/>
       <use xlink:href="#DejaVuSans-30" x="290.576172"/>
       <use xlink:href="#DejaVuSans-31" x="354.199219"/>
       <use xlink:href="#DejaVuSans-2d" x="417.822266"/>
       <use xlink:href="#DejaVuSans-32" x="453.90625"/>
       <use xlink:href="#DejaVuSans-39" x="517.529297"/>
      </g>
     </g>
    </g>
    <g id="xtick_18">
     <g id="line2d_25">
      <g>
       <use xlink:href="#mcbe12354a2" x="973.683204" y="572.436424" style="stroke: #000000; stroke-width: 0.8"/>
      </g>
     </g>
     <g id="text_26">
      <!-- 2023-01-30 -->
      <g transform="translate(944.625392 587.034861)scale(0.1 -0.1)">
       <use xlink:href="#DejaVuSans-32"/>
       <use xlink:href="#DejaVuSans-30" x="63.623047"/>
       <use xlink:href="#DejaVuSans-32" x="127.246094"/>
       <use xlink:href="#DejaVuSans-33" x="190.869141"/>
       <use xlink:href="#DejaVuSans-2d" x="254.492188"/>
       <use xlink:href="#DejaVuSans-30" x="290.576172"/>
       <use xlink:href="#DejaVuSans-31" x="354.199219"/>
       <use xlink:href="#DejaVuSans-2d" x="417.822266"/>
       <use xlink:href="#DejaVuSans-33" x="453.90625"/>
       <use xlink:href="#DejaVuSans-30" x="517.529297"/>
      </g>
     </g>
    </g>
    <g id="xtick_19">
     <g id="line2d_26">
      <g>
       <use xlink:href="#mcbe12354a2" x="1087.991489" y="572.436424" style="stroke: #000000; stroke-width: 0.8"/>
      </g>
     </g>
     <g id="text_27">
      <!-- 2023-01-31 -->
      <g transform="translate(1058.933676 587.034861)scale(0.1 -0.1)">
       <use xlink:href="#DejaVuSans-32"/>
       <use xlink:href="#DejaVuSans-30" x="63.623047"/>
       <use xlink:href="#DejaVuSans-32" x="127.246094"/>
       <use xlink:href="#DejaVuSans-33" x="190.869141"/>
       <use xlink:href="#DejaVuSans-2d" x="254.492188"/>
       <use xlink:href="#DejaVuSans-30" x="290.576172"/>
       <use xlink:href="#DejaVuSans-31" x="354.199219"/>
       <use xlink:href="#DejaVuSans-2d" x="417.822266"/>
       <use xlink:href="#DejaVuSans-33" x="453.90625"/>
       <use xlink:href="#DejaVuSans-31" x="517.529297"/>
      </g>
     </g>
    </g>
    <g id="xtick_20">
     <g id="line2d_27">
      <g>
       <use xlink:href="#mcbe12354a2" x="1202.299773" y="572.436424" style="stroke: #000000; stroke-width: 0.8"/>
      </g>
     </g>
     <g id="text_28">
      <!-- 2023-02-01 -->
      <g transform="translate(1173.241961 587.034861)scale(0.1 -0.1)">
       <use xlink:href="#DejaVuSans-32"/>
       <use xlink:href="#DejaVuSans-30" x="63.623047"/>
       <use xlink:href="#DejaVuSans-32" x="127.246094"/>
       <use xlink:href="#DejaVuSans-33" x="190.869141"/>
       <use xlink:href="#DejaVuSans-2d" x="254.492188"/>
       <use xlink:href="#DejaVuSans-30" x="290.576172"/>
       <use xlink:href="#DejaVuSans-32" x="354.199219"/>
       <use xlink:href="#DejaVuSans-2d" x="417.822266"/>
       <use xlink:href="#DejaVuSans-30" x="453.90625"/>
       <use xlink:href="#DejaVuSans-31" x="517.529297"/>
      </g>
     </g>
    </g>
    <g id="xtick_21">
     <g id="line2d_28">
      <g>
       <use xlink:href="#mcbe12354a2" x="1316.608058" y="572.436424" style="stroke: #000000; stroke-width: 0.8"/>
      </g>
     </g>
     <g id="text_29">
      <!-- 2023-02-02 -->
      <g transform="translate(1287.550245 587.034861)scale(0.1 -0.1)">
       <use xlink:href="#DejaVuSans-32"/>
       <use xlink:href="#DejaVuSans-30" x="63.623047"/>
       <use xlink:href="#DejaVuSans-32" x="127.246094"/>
       <use xlink:href="#DejaVuSans-33" x="190.869141"/>
       <use xlink:href="#DejaVuSans-2d" x="254.492188"/>
       <use xlink:href="#DejaVuSans-30" x="290.576172"/>
       <use xlink:href="#DejaVuSans-32" x="354.199219"/>
       <use xlink:href="#DejaVuSans-2d" x="417.822266"/>
       <use xlink:href="#DejaVuSans-30" x="453.90625"/>
       <use xlink:href="#DejaVuSans-32" x="517.529297"/>
      </g>
     </g>
    </g>
    <g id="xtick_22">
     <g id="line2d_29">
      <g>
       <use xlink:href="#mcbe12354a2" x="1430.916342" y="572.436424" style="stroke: #000000; stroke-width: 0.8"/>
      </g>
     </g>
     <g id="text_30">
      <!-- 2023-02-03 -->
      <g transform="translate(1401.85853 587.034861)scale(0.1 -0.1)">
       <use xlink:href="#DejaVuSans-32"/>
       <use xlink:href="#DejaVuSans-30" x="63.623047"/>
       <use xlink:href="#DejaVuSans-32" x="127.246094"/>
       <use xlink:href="#DejaVuSans-33" x="190.869141"/>
       <use xlink:href="#DejaVuSans-2d" x="254.492188"/>
       <use xlink:href="#DejaVuSans-30" x="290.576172"/>
       <use xlink:href="#DejaVuSans-32" x="354.199219"/>
       <use xlink:href="#DejaVuSans-2d" x="417.822266"/>
       <use xlink:href="#DejaVuSans-30" x="453.90625"/>
       <use xlink:href="#DejaVuSans-33" x="517.529297"/>
      </g>
     </g>
    </g>
    <g id="text_31">
     <!-- date -->
     <g transform="translate(816.761 600.712986)scale(0.1 -0.1)">
      <use xlink:href="#DejaVuSans-64"/>
      <use xlink:href="#DejaVuSans-61" x="63.476562"/>
      <use xlink:href="#DejaVuSans-74" x="124.755859"/>
      <use xlink:href="#DejaVuSans-65" x="163.964844"/>
     </g>
    </g>
   </g>
   <g id="matplotlib.axis_4">
    <g id="ytick_7">
     <g id="line2d_30">
      <g>
       <use xlink:href="#me56e59ad16" x="201.96" y="562.904894" style="stroke: #000000; stroke-width: 0.8"/>
      </g>
     </g>
     <g id="text_32">
      <!-- 0 -->
      <g transform="translate(188.5975 566.704113)scale(0.1 -0.1)">
       <use xlink:href="#DejaVuSans-30"/>
      </g>
     </g>
    </g>
    <g id="ytick_8">
     <g id="line2d_31">
      <g>
       <use xlink:href="#me56e59ad16" x="201.96" y="523.680493" style="stroke: #000000; stroke-width: 0.8"/>
      </g>
     </g>
     <g id="text_33">
      <!-- 200 -->
      <g transform="translate(175.8725 527.479712)scale(0.1 -0.1)">
       <use xlink:href="#DejaVuSans-32"/>
       <use xlink:href="#DejaVuSans-30" x="63.623047"/>
       <use xlink:href="#DejaVuSans-30" x="127.246094"/>
      </g>
     </g>
    </g>
    <g id="ytick_9">
     <g id="line2d_32">
      <g>
       <use xlink:href="#me56e59ad16" x="201.96" y="484.456092" style="stroke: #000000; stroke-width: 0.8"/>
      </g>
     </g>
     <g id="text_34">
      <!-- 400 -->
      <g transform="translate(175.8725 488.255311)scale(0.1 -0.1)">
       <use xlink:href="#DejaVuSans-34"/>
       <use xlink:href="#DejaVuSans-30" x="63.623047"/>
       <use xlink:href="#DejaVuSans-30" x="127.246094"/>
      </g>
     </g>
    </g>
    <g id="ytick_10">
     <g id="line2d_33">
      <g>
       <use xlink:href="#me56e59ad16" x="201.96" y="445.231692" style="stroke: #000000; stroke-width: 0.8"/>
      </g>
     </g>
     <g id="text_35">
      <!-- 600 -->
      <g transform="translate(175.8725 449.03091)scale(0.1 -0.1)">
       <use xlink:href="#DejaVuSans-36"/>
       <use xlink:href="#DejaVuSans-30" x="63.623047"/>
       <use xlink:href="#DejaVuSans-30" x="127.246094"/>
      </g>
     </g>
    </g>
    <g id="ytick_11">
     <g id="line2d_34">
      <g>
       <use xlink:href="#me56e59ad16" x="201.96" y="406.007291" style="stroke: #000000; stroke-width: 0.8"/>
      </g>
     </g>
     <g id="text_36">
      <!-- 800 -->
      <g transform="translate(175.8725 409.806509)scale(0.1 -0.1)">
       <use xlink:href="#DejaVuSans-38"/>
       <use xlink:href="#DejaVuSans-30" x="63.623047"/>
       <use xlink:href="#DejaVuSans-30" x="127.246094"/>
      </g>
     </g>
    </g>
    <g id="ytick_12">
     <g id="line2d_35">
      <g>
       <use xlink:href="#me56e59ad16" x="201.96" y="366.78289" style="stroke: #000000; stroke-width: 0.8"/>
      </g>
     </g>
     <g id="text_37">
      <!-- 1000 -->
      <g transform="translate(169.51 370.582109)scale(0.1 -0.1)">
       <use xlink:href="#DejaVuSans-31"/>
       <use xlink:href="#DejaVuSans-30" x="63.623047"/>
       <use xlink:href="#DejaVuSans-30" x="127.246094"/>
       <use xlink:href="#DejaVuSans-30" x="190.869141"/>
      </g>
     </g>
    </g>
    <g id="text_38">
     <!-- clicks -->
     <g transform="translate(163.430312 481.366163)rotate(-90)scale(0.1 -0.1)">
      <defs>
       <path id="DejaVuSans-63" d="M 3122 3366 
L 3122 2828 
Q 2878 2963 2633 3030 
Q 2388 3097 2138 3097 
Q 1578 3097 1268 2742 
Q 959 2388 959 1747 
Q 959 1106 1268 751 
Q 1578 397 2138 397 
Q 2388 397 2633 464 
Q 2878 531 3122 666 
L 3122 134 
Q 2881 22 2623 -34 
Q 2366 -91 2075 -91 
Q 1284 -91 818 406 
Q 353 903 353 1747 
Q 353 2603 823 3093 
Q 1294 3584 2113 3584 
Q 2378 3584 2631 3529 
Q 2884 3475 3122 3366 
z
" transform="scale(0.015625)"/>
       <path id="DejaVuSans-6c" d="M 603 4863 
L 1178 4863 
L 1178 0 
L 603 0 
L 603 4863 
z
" transform="scale(0.015625)"/>
       <path id="DejaVuSans-69" d="M 603 3500 
L 1178 3500 
L 1178 0 
L 603 0 
L 603 3500 
z
M 603 4863 
L 1178 4863 
L 1178 4134 
L 603 4134 
L 603 4863 
z
" transform="scale(0.015625)"/>
      </defs>
      <use xlink:href="#DejaVuSans-63"/>
      <use xlink:href="#DejaVuSans-6c" x="54.980469"/>
      <use xlink:href="#DejaVuSans-69" x="82.763672"/>
      <use xlink:href="#DejaVuSans-63" x="110.546875"/>
      <use xlink:href="#DejaVuSans-6b" x="165.527344"/>
      <use xlink:href="#DejaVuSans-73" x="223.4375"/>
     </g>
    </g>
   </g>
   <g id="line2d_36">
    <path d="M 258.876 539.370254 
L 263.638845 512.109295 
L 268.40169 510.736441 
L 273.164536 562.904894 
L 320.792987 562.904894 
L 325.555833 410.714219 
L 330.318678 483.671604 
L 335.081523 467.5896 
L 339.844368 530.544763 
L 344.607213 486.613434 
L 349.370059 495.438925 
L 354.132904 515.443369 
L 358.895749 505.833391 
L 363.658594 518.189077 
L 368.421439 548.78411 
L 373.184285 535.840058 
L 377.94713 495.635047 
L 382.709975 504.656659 
L 387.47282 562.904894 
L 430.338427 562.904894 
L 435.101272 544.273304 
L 439.864117 536.03618 
L 444.626962 456.606768 
L 449.389808 544.077182 
L 454.152653 513.286027 
L 458.915498 470.139186 
L 463.678343 551.922062 
L 468.441188 372.274306 
L 473.204033 413.459927 
L 477.966879 441.113129 
L 482.729724 562.904894 
L 487.492569 436.210079 
L 492.255414 489.947508 
L 497.018259 548.78411 
L 501.781105 555.256136 
L 506.54395 562.904894 
L 544.646711 562.904894 
L 549.409556 477.787944 
L 554.172402 491.712607 
L 558.935247 472.296528 
L 563.698092 496.419535 
L 568.460937 485.828946 
L 573.223782 502.107073 
L 577.986628 562.904894 
L 582.749473 523.484371 
L 587.512318 518.973565 
L 592.275163 475.826724 
L 597.038008 449.154132 
L 601.800854 523.288249 
L 606.563699 526.230079 
L 611.326544 562.904894 
L 654.192151 562.904894 
L 658.954996 519.169687 
L 663.717841 508.186855 
L 668.480686 476.611212 
L 673.243531 505.637269 
L 678.006377 494.066071 
L 682.769222 518.581321 
L 687.532067 562.904894 
L 692.294912 477.003456 
L 697.057757 539.174132 
L 701.820603 536.428424 
L 706.583448 495.046681 
L 711.346293 441.505373 
L 716.109138 476.022846 
L 720.871983 459.156354 
L 725.634828 541.91984 
L 730.397674 562.904894 
L 773.26328 562.904894 
L 778.026126 536.624546 
L 782.788971 535.251692 
L 787.551816 487.594044 
L 792.314661 497.792389 
L 797.077506 447.389034 
L 801.840351 498.969121 
L 806.603197 474.257748 
L 811.366042 519.169687 
L 816.128887 539.762498 
L 820.891732 511.913173 
L 825.654577 492.300973 
L 830.417423 516.620101 
L 835.180268 494.850559 
L 839.943113 458.371866 
L 844.705958 409.929731 
L 849.468803 545.646158 
L 854.231649 562.904894 
L 887.571565 562.904894 
L 892.33441 440.720885 
L 897.097255 461.313696 
L 901.8601 489.751386 
L 906.622946 524.072737 
L 911.385791 512.109295 
L 916.148636 533.486593 
L 920.911481 528.387421 
L 925.674326 495.635047 
L 930.437172 544.469426 
L 935.200017 562.904894 
L 939.962862 476.611212 
L 944.725707 423.462149 
L 949.488552 490.535875 
L 954.251397 489.16302 
L 959.014243 525.445591 
L 963.777088 562.904894 
L 1001.879849 562.904894 
L 1006.642695 482.494872 
L 1011.40554 493.673827 
L 1016.168385 412.871561 
L 1020.93123 478.768554 
L 1025.694075 492.104851 
L 1030.456921 523.484371 
L 1035.219766 481.906506 
L 1039.982611 545.84228 
L 1044.745456 543.096572 
L 1049.508301 551.137574 
L 1054.271146 519.954175 
L 1059.033992 562.904894 
L 1063.796837 556.236746 
L 1068.559682 562.904894 
L 1116.188134 562.904894 
L 1120.950979 460.136964 
L 1125.713824 398.554654 
L 1130.476669 481.710384 
L 1135.239515 487.790166 
L 1140.00236 497.792389 
L 1144.765205 468.374088 
L 1149.52805 526.033957 
L 1154.290895 562.904894 
L 1159.053741 536.232302 
L 1163.816586 461.902062 
L 1168.579431 521.130907 
L 1173.342276 498.380755 
L 1178.105121 540.154742 
L 1182.867967 562.904894 
L 1230.496418 562.904894 
L 1235.259264 499.753609 
L 1240.022109 531.721495 
L 1244.784954 447.585156 
L 1249.547799 517.208467 
L 1254.310644 499.557487 
L 1259.07349 496.811779 
L 1263.836335 562.904894 
L 1268.59918 512.501539 
L 1273.362025 483.475482 
L 1278.12487 494.262193 
L 1282.887715 544.469426 
L 1287.650561 528.191299 
L 1292.413406 494.850559 
L 1297.176251 560.355308 
L 1301.939096 562.120406 
L 1306.701941 562.904894 
L 1335.279013 562.904894 
L 1340.041858 548.78411 
L 1344.804703 562.904894 
L 1349.567548 550.74533 
L 1354.330393 556.825112 
L 1363.856084 560.355308 
L 1368.618929 500.734219 
L 1373.381774 486.22119 
L 1378.144619 562.904894 
L 1382.907464 517.404589 
L 1392.433155 560.943674 
L 1397.196 456.606768 
L 1397.196 456.606768 
" clip-path="url(#pfd094ad192)" style="fill: none; stroke: #1f77b4; stroke-width: 1.5; stroke-linecap: square"/>
   </g>
   <g id="line2d_37">
    <path d="M 258.876 560.159186 
L 263.638845 562.51265 
L 268.40169 561.335918 
L 273.164536 562.904894 
L 320.792987 562.904894 
L 325.555833 559.57082 
L 330.318678 562.120406 
L 335.081523 558.786332 
L 339.844368 560.943674 
L 344.607213 562.708772 
L 349.370059 559.374698 
L 354.132904 556.825112 
L 358.895749 551.922062 
L 363.658594 560.943674 
L 368.421439 562.51265 
L 373.184285 560.159186 
L 377.94713 554.863892 
L 382.709975 559.766942 
L 387.47282 562.904894 
L 430.338427 562.904894 
L 435.101272 561.139796 
L 439.864117 561.924284 
L 444.626962 562.120406 
L 449.389808 562.51265 
L 454.152653 560.943674 
L 458.915498 556.236746 
L 463.678343 562.51265 
L 468.441188 543.684938 
L 473.204033 562.316528 
L 477.966879 562.120406 
L 482.729724 562.904894 
L 487.492569 562.51265 
L 492.255414 559.963064 
L 497.018259 560.943674 
L 501.781105 562.904894 
L 544.646711 562.904894 
L 549.409556 560.747552 
L 554.172402 561.53204 
L 558.935247 561.728162 
L 563.698092 560.747552 
L 568.460937 561.53204 
L 573.223782 561.53204 
L 577.986628 562.904894 
L 582.749473 560.943674 
L 587.512318 562.120406 
L 592.275163 556.825112 
L 597.038008 560.159186 
L 601.800854 561.728162 
L 606.563699 562.904894 
L 654.192151 562.904894 
L 658.954996 559.57082 
L 663.717841 561.139796 
L 668.480686 560.55143 
L 673.243531 562.51265 
L 678.006377 561.728162 
L 682.769222 562.708772 
L 687.532067 562.904894 
L 692.294912 560.159186 
L 697.057757 562.708772 
L 701.820603 562.120406 
L 706.583448 557.413478 
L 711.346293 524.661103 
L 716.109138 559.963064 
L 720.871983 560.159186 
L 730.397674 562.904894 
L 773.26328 562.904894 
L 778.026126 558.982454 
L 782.788971 561.335918 
L 787.551816 561.335918 
L 792.314661 560.943674 
L 797.077506 556.825112 
L 801.840351 557.805722 
L 806.603197 557.6096 
L 811.366042 559.963064 
L 816.128887 561.924284 
L 820.891732 561.728162 
L 825.654577 557.805722 
L 830.417423 555.844502 
L 835.180268 560.747552 
L 839.943113 559.766942 
L 844.705958 558.59021 
L 849.468803 562.316528 
L 854.231649 562.904894 
L 887.571565 562.904894 
L 892.33441 559.963064 
L 897.097255 560.355308 
L 901.8601 557.805722 
L 906.622946 559.963064 
L 911.385791 559.963064 
L 916.148636 562.316528 
L 920.911481 561.924284 
L 925.674326 562.708772 
L 930.437172 561.53204 
L 935.200017 562.904894 
L 939.962862 560.747552 
L 944.725707 555.452258 
L 949.488552 561.335918 
L 954.251397 558.59021 
L 959.014243 561.728162 
L 963.777088 562.904894 
L 1001.879849 562.904894 
L 1006.642695 557.413478 
L 1011.40554 560.159186 
L 1016.168385 556.825112 
L 1020.93123 558.59021 
L 1025.694075 557.021234 
L 1030.456921 560.747552 
L 1035.219766 562.120406 
L 1039.982611 562.120406 
L 1044.745456 558.982454 
L 1049.508301 561.335918 
L 1054.271146 561.924284 
L 1059.033992 562.904894 
L 1063.796837 562.708772 
L 1068.559682 562.904894 
L 1116.188134 562.904894 
L 1120.950979 561.139796 
L 1125.713824 559.963064 
L 1130.476669 560.747552 
L 1140.00236 561.924284 
L 1144.765205 560.943674 
L 1149.52805 562.120406 
L 1154.290895 562.904894 
L 1159.053741 559.374698 
L 1163.816586 553.294916 
L 1168.579431 561.139796 
L 1173.342276 562.316528 
L 1178.105121 561.53204 
L 1182.867967 562.904894 
L 1230.496418 562.904894 
L 1235.259264 561.139796 
L 1240.022109 562.120406 
L 1244.784954 559.178576 
L 1249.547799 562.51265 
L 1254.310644 560.355308 
L 1259.07349 562.120406 
L 1263.836335 562.904894 
L 1268.59918 562.120406 
L 1278.12487 556.62899 
L 1282.887715 562.51265 
L 1287.650561 561.728162 
L 1292.413406 561.335918 
L 1297.176251 562.904894 
L 1335.279013 562.904894 
L 1340.041858 562.51265 
L 1344.804703 562.904894 
L 1349.567548 561.728162 
L 1354.330393 562.708772 
L 1359.093238 562.904894 
L 1363.856084 562.904894 
L 1368.618929 556.432868 
L 1373.381774 559.178576 
L 1378.144619 562.904894 
L 1382.907464 561.139796 
L 1387.67031 560.747552 
L 1392.433155 562.904894 
L 1397.196 561.924284 
L 1397.196 561.924284 
" clip-path="url(#pfd094ad192)" style="fill: none; stroke: #ff7f0e; stroke-width: 1.5; stroke-linecap: square"/>
   </g>
   <g id="line2d_38">
    <path d="M 258.876 560.943674 
L 263.638845 562.51265 
L 268.40169 559.766942 
L 273.164536 562.904894 
L 320.792987 562.904894 
L 325.555833 527.995177 
L 330.318678 485.044458 
L 335.081523 558.394088 
L 344.607213 559.178576 
L 349.370059 556.62899 
L 354.132904 560.159186 
L 358.895749 559.57082 
L 363.658594 559.178576 
L 368.421439 562.51265 
L 373.184285 562.904894 
L 377.94713 561.335918 
L 382.709975 560.747552 
L 387.47282 562.904894 
L 430.338427 562.904894 
L 435.101272 561.53204 
L 439.864117 561.53204 
L 444.626962 515.051125 
L 449.389808 562.51265 
L 454.152653 558.394088 
L 458.915498 558.59021 
L 463.678343 562.316528 
L 468.441188 551.922062 
L 473.204033 557.021234 
L 477.966879 560.943674 
L 482.729724 562.904894 
L 487.492569 560.159186 
L 492.255414 560.55143 
L 497.018259 562.51265 
L 501.781105 562.120406 
L 506.54395 562.904894 
L 544.646711 562.904894 
L 549.409556 551.137574 
L 554.172402 556.825112 
L 558.935247 553.68716 
L 563.698092 560.159186 
L 573.223782 561.335918 
L 577.986628 562.904894 
L 582.749473 562.316528 
L 587.512318 560.747552 
L 592.275163 558.786332 
L 597.038008 554.471648 
L 601.800854 562.316528 
L 606.563699 560.943674 
L 611.326544 562.904894 
L 654.192151 562.904894 
L 658.954996 559.963064 
L 663.717841 559.374698 
L 668.480686 550.353086 
L 673.243531 557.217356 
L 678.006377 560.159186 
L 682.769222 562.120406 
L 687.532067 562.904894 
L 692.294912 554.275526 
L 697.057757 560.747552 
L 701.820603 561.53204 
L 706.583448 560.159186 
L 711.346293 557.217356 
L 716.109138 555.452258 
L 720.871983 556.825112 
L 725.634828 561.924284 
L 730.397674 562.904894 
L 773.26328 562.904894 
L 778.026126 560.355308 
L 782.788971 562.708772 
L 787.551816 555.060014 
L 792.314661 558.786332 
L 797.077506 556.432868 
L 801.840351 559.178576 
L 806.603197 555.64838 
L 811.366042 561.335918 
L 816.128887 561.924284 
L 825.654577 558.394088 
L 830.417423 560.747552 
L 839.943113 559.178576 
L 844.705958 552.314306 
L 849.468803 560.55143 
L 854.231649 562.904894 
L 887.571565 562.904894 
L 892.33441 555.060014 
L 897.097255 530.348641 
L 901.8601 558.59021 
L 906.622946 561.53204 
L 911.385791 556.825112 
L 916.148636 559.374698 
L 920.911481 557.6096 
L 925.674326 558.394088 
L 930.437172 560.943674 
L 935.200017 562.904894 
L 939.962862 557.021234 
L 944.725707 557.6096 
L 949.488552 558.59021 
L 954.251397 557.021234 
L 963.777088 562.904894 
L 1001.879849 562.904894 
L 1006.642695 557.217356 
L 1011.40554 558.59021 
L 1016.168385 554.471648 
L 1020.93123 556.236746 
L 1025.694075 558.982454 
L 1030.456921 561.53204 
L 1035.219766 561.139796 
L 1039.982611 562.708772 
L 1044.745456 561.335918 
L 1049.508301 562.51265 
L 1054.271146 559.374698 
L 1059.033992 562.904894 
L 1063.796837 562.51265 
L 1068.559682 562.904894 
L 1116.188134 562.904894 
L 1120.950979 526.230079 
L 1125.713824 553.294916 
L 1130.476669 551.72594 
L 1135.239515 557.805722 
L 1140.00236 558.786332 
L 1144.765205 556.432868 
L 1149.52805 560.943674 
L 1154.290895 562.904894 
L 1159.053741 560.943674 
L 1163.816586 558.59021 
L 1168.579431 560.159186 
L 1173.342276 556.040624 
L 1178.105121 559.766942 
L 1182.867967 562.904894 
L 1230.496418 562.904894 
L 1235.259264 558.001844 
L 1240.022109 559.374698 
L 1244.784954 555.256136 
L 1249.547799 558.394088 
L 1254.310644 558.197966 
L 1259.07349 556.236746 
L 1263.836335 562.904894 
L 1268.59918 559.374698 
L 1273.362025 558.197966 
L 1278.12487 558.786332 
L 1282.887715 562.120406 
L 1287.650561 560.55143 
L 1292.413406 559.178576 
L 1297.176251 562.120406 
L 1301.939096 562.904894 
L 1344.804703 562.904894 
L 1349.567548 561.335918 
L 1354.330393 561.728162 
L 1359.093238 562.904894 
L 1363.856084 562.316528 
L 1368.618929 559.374698 
L 1378.144619 562.904894 
L 1382.907464 560.943674 
L 1387.67031 561.728162 
L 1392.433155 562.904894 
L 1397.196 561.728162 
L 1397.196 561.728162 
" clip-path="url(#pfd094ad192)" style="fill: none; stroke: #2ca02c; stroke-width: 1.5; stroke-linecap: square"/>
   </g>
   <g id="patch_8">
    <path d="M 201.96 572.436424 
L 201.96 362.742776 
" style="fill: none; stroke: #000000; stroke-width: 0.8; stroke-linejoin: miter; stroke-linecap: square"/>
   </g>
   <g id="patch_9">
    <path d="M 1454.112 572.436424 
L 1454.112 362.742776 
" style="fill: none; stroke: #000000; stroke-width: 0.8; stroke-linejoin: miter; stroke-linecap: square"/>
   </g>
   <g id="patch_10">
    <path d="M 201.96 572.436424 
L 1454.112 572.436424 
" style="fill: none; stroke: #000000; stroke-width: 0.8; stroke-linejoin: miter; stroke-linecap: square"/>
   </g>
   <g id="patch_11">
    <path d="M 201.96 362.742776 
L 1454.112 362.742776 
" style="fill: none; stroke: #000000; stroke-width: 0.8; stroke-linejoin: miter; stroke-linecap: square"/>
   </g>
   <g id="legend_1">
    <g id="patch_12">
     <path d="M 1355.44325 414.777151 
L 1447.112 414.777151 
Q 1449.112 414.777151 1449.112 412.777151 
L 1449.112 369.742776 
Q 1449.112 367.742776 1447.112 367.742776 
L 1355.44325 367.742776 
Q 1353.44325 367.742776 1353.44325 369.742776 
L 1353.44325 412.777151 
Q 1353.44325 414.777151 1355.44325 414.777151 
z
" style="fill: #ffffff; opacity: 0.8; stroke: #cccccc; stroke-linejoin: miter"/>
    </g>
    <g id="line2d_39">
     <path d="M 1357.44325 375.841214 
L 1367.44325 375.841214 
L 1377.44325 375.841214 
" style="fill: none; stroke: #1f77b4; stroke-width: 1.5; stroke-linecap: square"/>
    </g>
    <g id="text_39">
     <!-- left click -->
     <g transform="translate(1385.44325 379.341214)scale(0.1 -0.1)">
      <defs>
       <path id="DejaVuSans-66" d="M 2375 4863 
L 2375 4384 
L 1825 4384 
Q 1516 4384 1395 4259 
Q 1275 4134 1275 3809 
L 1275 3500 
L 2222 3500 
L 2222 3053 
L 1275 3053 
L 1275 0 
L 697 0 
L 697 3053 
L 147 3053 
L 147 3500 
L 697 3500 
L 697 3744 
Q 697 4328 969 4595 
Q 1241 4863 1831 4863 
L 2375 4863 
z
" transform="scale(0.015625)"/>
      </defs>
      <use xlink:href="#DejaVuSans-6c"/>
      <use xlink:href="#DejaVuSans-65" x="27.783203"/>
      <use xlink:href="#DejaVuSans-66" x="89.306641"/>
      <use xlink:href="#DejaVuSans-74" x="122.761719"/>
      <use xlink:href="#DejaVuSans-20" x="161.970703"/>
      <use xlink:href="#DejaVuSans-63" x="193.757812"/>
      <use xlink:href="#DejaVuSans-6c" x="248.738281"/>
      <use xlink:href="#DejaVuSans-69" x="276.521484"/>
      <use xlink:href="#DejaVuSans-63" x="304.304688"/>
      <use xlink:href="#DejaVuSans-6b" x="359.285156"/>
     </g>
    </g>
    <g id="line2d_40">
     <path d="M 1357.44325 390.519339 
L 1367.44325 390.519339 
L 1377.44325 390.519339 
" style="fill: none; stroke: #ff7f0e; stroke-width: 1.5; stroke-linecap: square"/>
    </g>
    <g id="text_40">
     <!-- middle click -->
     <g transform="translate(1385.44325 394.019339)scale(0.1 -0.1)">
      <defs>
       <path id="DejaVuSans-6d" d="M 3328 2828 
Q 3544 3216 3844 3400 
Q 4144 3584 4550 3584 
Q 5097 3584 5394 3201 
Q 5691 2819 5691 2113 
L 5691 0 
L 5113 0 
L 5113 2094 
Q 5113 2597 4934 2840 
Q 4756 3084 4391 3084 
Q 3944 3084 3684 2787 
Q 3425 2491 3425 1978 
L 3425 0 
L 2847 0 
L 2847 2094 
Q 2847 2600 2669 2842 
Q 2491 3084 2119 3084 
Q 1678 3084 1418 2786 
Q 1159 2488 1159 1978 
L 1159 0 
L 581 0 
L 581 3500 
L 1159 3500 
L 1159 2956 
Q 1356 3278 1631 3431 
Q 1906 3584 2284 3584 
Q 2666 3584 2933 3390 
Q 3200 3197 3328 2828 
z
" transform="scale(0.015625)"/>
      </defs>
      <use xlink:href="#DejaVuSans-6d"/>
      <use xlink:href="#DejaVuSans-69" x="97.412109"/>
      <use xlink:href="#DejaVuSans-64" x="125.195312"/>
      <use xlink:href="#DejaVuSans-64" x="188.671875"/>
      <use xlink:href="#DejaVuSans-6c" x="252.148438"/>
      <use xlink:href="#DejaVuSans-65" x="279.931641"/>
      <use xlink:href="#DejaVuSans-20" x="341.455078"/>
      <use xlink:href="#DejaVuSans-63" x="373.242188"/>
      <use xlink:href="#DejaVuSans-6c" x="428.222656"/>
      <use xlink:href="#DejaVuSans-69" x="456.005859"/>
      <use xlink:href="#DejaVuSans-63" x="483.789062"/>
      <use xlink:href="#DejaVuSans-6b" x="538.769531"/>
     </g>
    </g>
    <g id="line2d_41">
     <path d="M 1357.44325 405.197464 
L 1367.44325 405.197464 
L 1377.44325 405.197464 
" style="fill: none; stroke: #2ca02c; stroke-width: 1.5; stroke-linecap: square"/>
    </g>
    <g id="text_41">
     <!-- right click -->
     <g transform="translate(1385.44325 408.697464)scale(0.1 -0.1)">
      <defs>
       <path id="DejaVuSans-67" d="M 2906 1791 
Q 2906 2416 2648 2759 
Q 2391 3103 1925 3103 
Q 1463 3103 1205 2759 
Q 947 2416 947 1791 
Q 947 1169 1205 825 
Q 1463 481 1925 481 
Q 2391 481 2648 825 
Q 2906 1169 2906 1791 
z
M 3481 434 
Q 3481 -459 3084 -895 
Q 2688 -1331 1869 -1331 
Q 1566 -1331 1297 -1286 
Q 1028 -1241 775 -1147 
L 775 -588 
Q 1028 -725 1275 -790 
Q 1522 -856 1778 -856 
Q 2344 -856 2625 -561 
Q 2906 -266 2906 331 
L 2906 616 
Q 2728 306 2450 153 
Q 2172 0 1784 0 
Q 1141 0 747 490 
Q 353 981 353 1791 
Q 353 2603 747 3093 
Q 1141 3584 1784 3584 
Q 2172 3584 2450 3431 
Q 2728 3278 2906 2969 
L 2906 3500 
L 3481 3500 
L 3481 434 
z
" transform="scale(0.015625)"/>
       <path id="DejaVuSans-68" d="M 3513 2113 
L 3513 0 
L 2938 0 
L 2938 2094 
Q 2938 2591 2744 2837 
Q 2550 3084 2163 3084 
Q 1697 3084 1428 2787 
Q 1159 2491 1159 1978 
L 1159 0 
L 581 0 
L 581 4863 
L 1159 4863 
L 1159 2956 
Q 1366 3272 1645 3428 
Q 1925 3584 2291 3584 
Q 2894 3584 3203 3211 
Q 3513 2838 3513 2113 
z
" transform="scale(0.015625)"/>
      </defs>
      <use xlink:href="#DejaVuSans-72"/>
      <use xlink:href="#DejaVuSans-69" x="41.113281"/>
      <use xlink:href="#DejaVuSans-67" x="68.896484"/>
      <use xlink:href="#DejaVuSans-68" x="132.373047"/>
      <use xlink:href="#DejaVuSans-74" x="195.751953"/>
      <use xlink:href="#DejaVuSans-20" x="234.960938"/>
      <use xlink:href="#DejaVuSans-63" x="266.748047"/>
      <use xlink:href="#DejaVuSans-6c" x="321.728516"/>
      <use xlink:href="#DejaVuSans-69" x="349.511719"/>
      <use xlink:href="#DejaVuSans-63" x="377.294922"/>
      <use xlink:href="#DejaVuSans-6b" x="432.275391"/>
     </g>
    </g>
   </g>
  </g>
  <g id="axes_3">
   <g id="patch_13">
    <path d="M 201.96 824.0688 
L 1454.112 824.0688 
L 1454.112 614.375153 
L 201.96 614.375153 
z
" style="fill: #ffffff"/>
   </g>
   <g id="matplotlib.axis_5">
    <g id="xtick_23">
     <g id="line2d_42">
      <g>
       <use xlink:href="#mcbe12354a2" x="287.833497" y="824.0688" style="stroke: #000000; stroke-width: 0.8"/>
      </g>
     </g>
     <g id="text_42">
      <!-- 2023-01-24 -->
      <g transform="translate(258.775685 838.667237)scale(0.1 -0.1)">
       <use xlink:href="#DejaVuSans-32"/>
       <use xlink:href="#DejaVuSans-30" x="63.623047"/>
       <use xlink:href="#DejaVuSans-32" x="127.246094"/>
       <use xlink:href="#DejaVuSans-33" x="190.869141"/>
       <use xlink:href="#DejaVuSans-2d" x="254.492188"/>
       <use xlink:href="#DejaVuSans-30" x="290.576172"/>
       <use xlink:href="#DejaVuSans-31" x="354.199219"/>
       <use xlink:href="#DejaVuSans-2d" x="417.822266"/>
       <use xlink:href="#DejaVuSans-32" x="453.90625"/>
       <use xlink:href="#DejaVuSans-34" x="517.529297"/>
      </g>
     </g>
    </g>
    <g id="xtick_24">
     <g id="line2d_43">
      <g>
       <use xlink:href="#mcbe12354a2" x="402.141782" y="824.0688" style="stroke: #000000; stroke-width: 0.8"/>
      </g>
     </g>
     <g id="text_43">
      <!-- 2023-01-25 -->
      <g transform="translate(373.083969 838.667237)scale(0.1 -0.1)">
       <use xlink:href="#DejaVuSans-32"/>
       <use xlink:href="#DejaVuSans-30" x="63.623047"/>
       <use xlink:href="#DejaVuSans-32" x="127.246094"/>
       <use xlink:href="#DejaVuSans-33" x="190.869141"/>
       <use xlink:href="#DejaVuSans-2d" x="254.492188"/>
       <use xlink:href="#DejaVuSans-30" x="290.576172"/>
       <use xlink:href="#DejaVuSans-31" x="354.199219"/>
       <use xlink:href="#DejaVuSans-2d" x="417.822266"/>
       <use xlink:href="#DejaVuSans-32" x="453.90625"/>
       <use xlink:href="#DejaVuSans-35" x="517.529297"/>
      </g>
     </g>
    </g>
    <g id="xtick_25">
     <g id="line2d_44">
      <g>
       <use xlink:href="#mcbe12354a2" x="516.450066" y="824.0688" style="stroke: #000000; stroke-width: 0.8"/>
      </g>
     </g>
     <g id="text_44">
      <!-- 2023-01-26 -->
      <g transform="translate(487.392254 838.667237)scale(0.1 -0.1)">
       <use xlink:href="#DejaVuSans-32"/>
       <use xlink:href="#DejaVuSans-30" x="63.623047"/>
       <use xlink:href="#DejaVuSans-32" x="127.246094"/>
       <use xlink:href="#DejaVuSans-33" x="190.869141"/>
       <use xlink:href="#DejaVuSans-2d" x="254.492188"/>
       <use xlink:href="#DejaVuSans-30" x="290.576172"/>
       <use xlink:href="#DejaVuSans-31" x="354.199219"/>
       <use xlink:href="#DejaVuSans-2d" x="417.822266"/>
       <use xlink:href="#DejaVuSans-32" x="453.90625"/>
       <use xlink:href="#DejaVuSans-36" x="517.529297"/>
      </g>
     </g>
    </g>
    <g id="xtick_26">
     <g id="line2d_45">
      <g>
       <use xlink:href="#mcbe12354a2" x="630.758351" y="824.0688" style="stroke: #000000; stroke-width: 0.8"/>
      </g>
     </g>
     <g id="text_45">
      <!-- 2023-01-27 -->
      <g transform="translate(601.700538 838.667237)scale(0.1 -0.1)">
       <use xlink:href="#DejaVuSans-32"/>
       <use xlink:href="#DejaVuSans-30" x="63.623047"/>
       <use xlink:href="#DejaVuSans-32" x="127.246094"/>
       <use xlink:href="#DejaVuSans-33" x="190.869141"/>
       <use xlink:href="#DejaVuSans-2d" x="254.492188"/>
       <use xlink:href="#DejaVuSans-30" x="290.576172"/>
       <use xlink:href="#DejaVuSans-31" x="354.199219"/>
       <use xlink:href="#DejaVuSans-2d" x="417.822266"/>
       <use xlink:href="#DejaVuSans-32" x="453.90625"/>
       <use xlink:href="#DejaVuSans-37" x="517.529297"/>
      </g>
     </g>
    </g>
    <g id="xtick_27">
     <g id="line2d_46">
      <g>
       <use xlink:href="#mcbe12354a2" x="745.066635" y="824.0688" style="stroke: #000000; stroke-width: 0.8"/>
      </g>
     </g>
     <g id="text_46">
      <!-- 2023-01-28 -->
      <g transform="translate(716.008823 838.667237)scale(0.1 -0.1)">
       <use xlink:href="#DejaVuSans-32"/>
       <use xlink:href="#DejaVuSans-30" x="63.623047"/>
       <use xlink:href="#DejaVuSans-32" x="127.246094"/>
       <use xlink:href="#DejaVuSans-33" x="190.869141"/>
       <use xlink:href="#DejaVuSans-2d" x="254.492188"/>
       <use xlink:href="#DejaVuSans-30" x="290.576172"/>
       <use xlink:href="#DejaVuSans-31" x="354.199219"/>
       <use xlink:href="#DejaVuSans-2d" x="417.822266"/>
       <use xlink:href="#DejaVuSans-32" x="453.90625"/>
       <use xlink:href="#DejaVuSans-38" x="517.529297"/>
      </g>
     </g>
    </g>
    <g id="xtick_28">
     <g id="line2d_47">
      <g>
       <use xlink:href="#mcbe12354a2" x="859.37492" y="824.0688" style="stroke: #000000; stroke-width: 0.8"/>
      </g>
     </g>
     <g id="text_47">
      <!-- 2023-01-29 -->
      <g transform="translate(830.317107 838.667237)scale(0.1 -0.1)">
       <use xlink:href="#DejaVuSans-32"/>
       <use xlink:href="#DejaVuSans-30" x="63.623047"/>
       <use xlink:href="#DejaVuSans-32" x="127.246094"/>
       <use xlink:href="#DejaVuSans-33" x="190.869141"/>
       <use xlink:href="#DejaVuSans-2d" x="254.492188"/>
       <use xlink:href="#DejaVuSans-30" x="290.576172"/>
       <use xlink:href="#DejaVuSans-31" x="354.199219"/>
       <use xlink:href="#DejaVuSans-2d" x="417.822266"/>
       <use xlink:href="#DejaVuSans-32" x="453.90625"/>
       <use xlink:href="#DejaVuSans-39" x="517.529297"/>
      </g>
     </g>
    </g>
    <g id="xtick_29">
     <g id="line2d_48">
      <g>
       <use xlink:href="#mcbe12354a2" x="973.683204" y="824.0688" style="stroke: #000000; stroke-width: 0.8"/>
      </g>
     </g>
     <g id="text_48">
      <!-- 2023-01-30 -->
      <g transform="translate(944.625392 838.667237)scale(0.1 -0.1)">
       <use xlink:href="#DejaVuSans-32"/>
       <use xlink:href="#DejaVuSans-30" x="63.623047"/>
       <use xlink:href="#DejaVuSans-32" x="127.246094"/>
       <use xlink:href="#DejaVuSans-33" x="190.869141"/>
       <use xlink:href="#DejaVuSans-2d" x="254.492188"/>
       <use xlink:href="#DejaVuSans-30" x="290.576172"/>
       <use xlink:href="#DejaVuSans-31" x="354.199219"/>
       <use xlink:href="#DejaVuSans-2d" x="417.822266"/>
       <use xlink:href="#DejaVuSans-33" x="453.90625"/>
       <use xlink:href="#DejaVuSans-30" x="517.529297"/>
      </g>
     </g>
    </g>
    <g id="xtick_30">
     <g id="line2d_49">
      <g>
       <use xlink:href="#mcbe12354a2" x="1087.991489" y="824.0688" style="stroke: #000000; stroke-width: 0.8"/>
      </g>
     </g>
     <g id="text_49">
      <!-- 2023-01-31 -->
      <g transform="translate(1058.933676 838.667237)scale(0.1 -0.1)">
       <use xlink:href="#DejaVuSans-32"/>
       <use xlink:href="#DejaVuSans-30" x="63.623047"/>
       <use xlink:href="#DejaVuSans-32" x="127.246094"/>
       <use xlink:href="#DejaVuSans-33" x="190.869141"/>
       <use xlink:href="#DejaVuSans-2d" x="254.492188"/>
       <use xlink:href="#DejaVuSans-30" x="290.576172"/>
       <use xlink:href="#DejaVuSans-31" x="354.199219"/>
       <use xlink:href="#DejaVuSans-2d" x="417.822266"/>
       <use xlink:href="#DejaVuSans-33" x="453.90625"/>
       <use xlink:href="#DejaVuSans-31" x="517.529297"/>
      </g>
     </g>
    </g>
    <g id="xtick_31">
     <g id="line2d_50">
      <g>
       <use xlink:href="#mcbe12354a2" x="1202.299773" y="824.0688" style="stroke: #000000; stroke-width: 0.8"/>
      </g>
     </g>
     <g id="text_50">
      <!-- 2023-02-01 -->
      <g transform="translate(1173.241961 838.667237)scale(0.1 -0.1)">
       <use xlink:href="#DejaVuSans-32"/>
       <use xlink:href="#DejaVuSans-30" x="63.623047"/>
       <use xlink:href="#DejaVuSans-32" x="127.246094"/>
       <use xlink:href="#DejaVuSans-33" x="190.869141"/>
       <use xlink:href="#DejaVuSans-2d" x="254.492188"/>
       <use xlink:href="#DejaVuSans-30" x="290.576172"/>
       <use xlink:href="#DejaVuSans-32" x="354.199219"/>
       <use xlink:href="#DejaVuSans-2d" x="417.822266"/>
       <use xlink:href="#DejaVuSans-30" x="453.90625"/>
       <use xlink:href="#DejaVuSans-31" x="517.529297"/>
      </g>
     </g>
    </g>
    <g id="xtick_32">
     <g id="line2d_51">
      <g>
       <use xlink:href="#mcbe12354a2" x="1316.608058" y="824.0688" style="stroke: #000000; stroke-width: 0.8"/>
      </g>
     </g>
     <g id="text_51">
      <!-- 2023-02-02 -->
      <g transform="translate(1287.550245 838.667237)scale(0.1 -0.1)">
       <use xlink:href="#DejaVuSans-32"/>
       <use xlink:href="#DejaVuSans-30" x="63.623047"/>
       <use xlink:href="#DejaVuSans-32" x="127.246094"/>
       <use xlink:href="#DejaVuSans-33" x="190.869141"/>
       <use xlink:href="#DejaVuSans-2d" x="254.492188"/>
       <use xlink:href="#DejaVuSans-30" x="290.576172"/>
       <use xlink:href="#DejaVuSans-32" x="354.199219"/>
       <use xlink:href="#DejaVuSans-2d" x="417.822266"/>
       <use xlink:href="#DejaVuSans-30" x="453.90625"/>
       <use xlink:href="#DejaVuSans-32" x="517.529297"/>
      </g>
     </g>
    </g>
    <g id="xtick_33">
     <g id="line2d_52">
      <g>
       <use xlink:href="#mcbe12354a2" x="1430.916342" y="824.0688" style="stroke: #000000; stroke-width: 0.8"/>
      </g>
     </g>
     <g id="text_52">
      <!-- 2023-02-03 -->
      <g transform="translate(1401.85853 838.667237)scale(0.1 -0.1)">
       <use xlink:href="#DejaVuSans-32"/>
       <use xlink:href="#DejaVuSans-30" x="63.623047"/>
       <use xlink:href="#DejaVuSans-32" x="127.246094"/>
       <use xlink:href="#DejaVuSans-33" x="190.869141"/>
       <use xlink:href="#DejaVuSans-2d" x="254.492188"/>
       <use xlink:href="#DejaVuSans-30" x="290.576172"/>
       <use xlink:href="#DejaVuSans-32" x="354.199219"/>
       <use xlink:href="#DejaVuSans-2d" x="417.822266"/>
       <use xlink:href="#DejaVuSans-30" x="453.90625"/>
       <use xlink:href="#DejaVuSans-33" x="517.529297"/>
      </g>
     </g>
    </g>
    <g id="text_53">
     <!-- date -->
     <g transform="translate(816.761 852.345362)scale(0.1 -0.1)">
      <use xlink:href="#DejaVuSans-64"/>
      <use xlink:href="#DejaVuSans-61" x="63.476562"/>
      <use xlink:href="#DejaVuSans-74" x="124.755859"/>
      <use xlink:href="#DejaVuSans-65" x="163.964844"/>
     </g>
    </g>
   </g>
   <g id="matplotlib.axis_6">
    <g id="ytick_13">
     <g id="line2d_53">
      <g>
       <use xlink:href="#me56e59ad16" x="201.96" y="814.537271" style="stroke: #000000; stroke-width: 0.8"/>
      </g>
     </g>
     <g id="text_54">
      <!-- 0 -->
      <g transform="translate(188.5975 818.336489)scale(0.1 -0.1)">
       <use xlink:href="#DejaVuSans-30"/>
      </g>
     </g>
    </g>
    <g id="ytick_14">
     <g id="line2d_54">
      <g>
       <use xlink:href="#me56e59ad16" x="201.96" y="768.26771" style="stroke: #000000; stroke-width: 0.8"/>
      </g>
     </g>
     <g id="text_55">
      <!-- 500 -->
      <g transform="translate(175.8725 772.066929)scale(0.1 -0.1)">
       <use xlink:href="#DejaVuSans-35"/>
       <use xlink:href="#DejaVuSans-30" x="63.623047"/>
       <use xlink:href="#DejaVuSans-30" x="127.246094"/>
      </g>
     </g>
    </g>
    <g id="ytick_15">
     <g id="line2d_55">
      <g>
       <use xlink:href="#me56e59ad16" x="201.96" y="721.99815" style="stroke: #000000; stroke-width: 0.8"/>
      </g>
     </g>
     <g id="text_56">
      <!-- 1000 -->
      <g transform="translate(169.51 725.797369)scale(0.1 -0.1)">
       <use xlink:href="#DejaVuSans-31"/>
       <use xlink:href="#DejaVuSans-30" x="63.623047"/>
       <use xlink:href="#DejaVuSans-30" x="127.246094"/>
       <use xlink:href="#DejaVuSans-30" x="190.869141"/>
      </g>
     </g>
    </g>
    <g id="ytick_16">
     <g id="line2d_56">
      <g>
       <use xlink:href="#me56e59ad16" x="201.96" y="675.72859" style="stroke: #000000; stroke-width: 0.8"/>
      </g>
     </g>
     <g id="text_57">
      <!-- 1500 -->
      <g transform="translate(169.51 679.527809)scale(0.1 -0.1)">
       <use xlink:href="#DejaVuSans-31"/>
       <use xlink:href="#DejaVuSans-35" x="63.623047"/>
       <use xlink:href="#DejaVuSans-30" x="127.246094"/>
       <use xlink:href="#DejaVuSans-30" x="190.869141"/>
      </g>
     </g>
    </g>
    <g id="ytick_17">
     <g id="line2d_57">
      <g>
       <use xlink:href="#me56e59ad16" x="201.96" y="629.45903" style="stroke: #000000; stroke-width: 0.8"/>
      </g>
     </g>
     <g id="text_58">
      <!-- 2000 -->
      <g transform="translate(169.51 633.258248)scale(0.1 -0.1)">
       <use xlink:href="#DejaVuSans-32"/>
       <use xlink:href="#DejaVuSans-30" x="63.623047"/>
       <use xlink:href="#DejaVuSans-30" x="127.246094"/>
       <use xlink:href="#DejaVuSans-30" x="190.869141"/>
      </g>
     </g>
    </g>
    <g id="text_59">
     <!-- scroll -->
     <g transform="translate(163.430312 732.356351)rotate(-90)scale(0.1 -0.1)">
      <defs>
       <path id="DejaVuSans-6f" d="M 1959 3097 
Q 1497 3097 1228 2736 
Q 959 2375 959 1747 
Q 959 1119 1226 758 
Q 1494 397 1959 397 
Q 2419 397 2687 759 
Q 2956 1122 2956 1747 
Q 2956 2369 2687 2733 
Q 2419 3097 1959 3097 
z
M 1959 3584 
Q 2709 3584 3137 3096 
Q 3566 2609 3566 1747 
Q 3566 888 3137 398 
Q 2709 -91 1959 -91 
Q 1206 -91 779 398 
Q 353 888 353 1747 
Q 353 2609 779 3096 
Q 1206 3584 1959 3584 
z
" transform="scale(0.015625)"/>
      </defs>
      <use xlink:href="#DejaVuSans-73"/>
      <use xlink:href="#DejaVuSans-63" x="52.099609"/>
      <use xlink:href="#DejaVuSans-72" x="107.080078"/>
      <use xlink:href="#DejaVuSans-6f" x="145.943359"/>
      <use xlink:href="#DejaVuSans-6c" x="207.125"/>
      <use xlink:href="#DejaVuSans-6c" x="234.908203"/>
     </g>
    </g>
   </g>
   <g id="line2d_58">
    <path d="M 258.876 739.673122 
L 263.638845 791.49503 
L 268.40169 774.560371 
L 273.164536 814.537271 
L 320.792987 814.537271 
L 325.555833 749.574808 
L 330.318678 799.268316 
L 335.081523 751.795747 
L 339.844368 756.977938 
L 344.607213 752.073364 
L 349.370059 765.12138 
L 354.132904 772.061814 
L 358.895749 742.541835 
L 363.658594 772.154353 
L 368.421439 770.118493 
L 373.184285 758.736181 
L 377.94713 706.359039 
L 382.709975 751.147973 
L 387.47282 814.537271 
L 430.338427 814.537271 
L 435.101272 767.064702 
L 439.864117 769.193102 
L 444.626962 794.363742 
L 449.389808 797.324994 
L 454.152653 759.383955 
L 458.915498 687.666136 
L 463.678343 801.674333 
L 468.441188 694.976727 
L 473.204033 713.114395 
L 477.966879 693.033405 
L 482.729724 814.537271 
L 487.492569 656.572992 
L 492.255414 748.834495 
L 497.018259 744.392617 
L 501.781105 807.504297 
L 506.54395 814.537271 
L 544.646711 814.537271 
L 549.409556 735.786479 
L 554.172402 771.691658 
L 558.935247 760.216807 
L 563.698092 757.81079 
L 568.460937 789.089012 
L 573.223782 711.171073 
L 577.986628 814.537271 
L 582.749473 741.061209 
L 587.512318 800.286246 
L 592.275163 740.691052 
L 597.038008 734.213314 
L 601.800854 729.678897 
L 606.563699 767.527397 
L 611.326544 814.537271 
L 654.192151 814.537271 
L 658.954996 762.160128 
L 663.717841 766.787084 
L 668.480686 739.673122 
L 673.243531 797.602612 
L 678.006377 780.390335 
L 682.769222 779.92764 
L 687.532067 814.537271 
L 692.294912 722.368307 
L 697.057757 804.08035 
L 701.820603 775.393223 
L 706.583448 748.27926 
L 711.346293 764.10345 
L 716.109138 693.403562 
L 720.871983 756.607781 
L 725.634828 808.24461 
L 730.397674 814.537271 
L 773.26328 814.537271 
L 778.026126 770.39611 
L 782.788971 774.282753 
L 787.551816 779.094787 
L 792.314661 743.374687 
L 797.077506 720.054829 
L 801.840351 754.201764 
L 806.603197 709.41283 
L 811.366042 774.097675 
L 816.128887 782.796352 
L 820.891732 743.09707 
L 825.654577 726.625106 
L 830.417423 753.924147 
L 835.180268 764.658685 
L 839.943113 752.350982 
L 844.705958 689.42438 
L 849.468803 781.685883 
L 854.231649 814.537271 
L 887.571565 814.537271 
L 892.33441 678.412224 
L 897.097255 759.754111 
L 901.8601 712.189003 
L 906.622946 764.936302 
L 911.385791 752.813677 
L 916.148636 780.390335 
L 920.911481 791.680108 
L 925.674326 812.779027 
L 930.437172 799.731011 
L 935.200017 814.537271 
L 939.962862 765.769154 
L 944.725707 623.906682 
L 949.488552 762.807902 
L 954.251397 712.189003 
L 959.014243 778.169396 
L 963.777088 814.537271 
L 1001.879849 814.537271 
L 1006.642695 690.44231 
L 1011.40554 752.53606 
L 1016.168385 689.146762 
L 1020.93123 731.066984 
L 1025.694075 712.374082 
L 1030.456921 774.560371 
L 1035.219766 759.383955 
L 1039.982611 794.548821 
L 1044.745456 781.038109 
L 1049.508301 803.617654 
L 1054.271146 790.477099 
L 1059.033992 814.537271 
L 1063.796837 797.139916 
L 1068.559682 814.537271 
L 1116.188134 814.537271 
L 1120.950979 783.351587 
L 1125.713824 707.747126 
L 1135.239515 771.784197 
L 1140.00236 751.795747 
L 1144.765205 759.754111 
L 1149.52805 769.285641 
L 1154.290895 814.537271 
L 1159.053741 775.67084 
L 1163.816586 710.153143 
L 1168.579431 767.342319 
L 1173.342276 771.41404 
L 1178.105121 780.94557 
L 1182.867967 814.537271 
L 1230.496418 814.537271 
L 1235.259264 765.12138 
L 1240.022109 785.757604 
L 1244.784954 758.736181 
L 1249.547799 801.026559 
L 1254.310644 777.891779 
L 1259.07349 784.462056 
L 1263.836335 814.537271 
L 1268.59918 782.426196 
L 1273.362025 737.359644 
L 1278.12487 717.186116 
L 1282.887715 791.772647 
L 1287.650561 789.089012 
L 1292.413406 782.888891 
L 1297.176251 810.928245 
L 1301.939096 814.537271 
L 1335.279013 814.537271 
L 1340.041858 807.319219 
L 1344.804703 814.537271 
L 1349.567548 790.754717 
L 1354.330393 801.489255 
L 1359.093238 812.871566 
L 1363.856084 810.650628 
L 1368.618929 739.302966 
L 1373.381774 770.303571 
L 1378.144619 814.537271 
L 1382.907464 772.52451 
L 1387.67031 794.178664 
L 1392.433155 806.949063 
L 1397.196 784.647135 
L 1397.196 784.647135 
" clip-path="url(#pf3adc96024)" style="fill: none; stroke: #1f77b4; stroke-width: 1.5; stroke-linecap: square"/>
   </g>
   <g id="patch_14">
    <path d="M 201.96 824.0688 
L 201.96 614.375153 
" style="fill: none; stroke: #000000; stroke-width: 0.8; stroke-linejoin: miter; stroke-linecap: square"/>
   </g>
   <g id="patch_15">
    <path d="M 1454.112 824.0688 
L 1454.112 614.375153 
" style="fill: none; stroke: #000000; stroke-width: 0.8; stroke-linejoin: miter; stroke-linecap: square"/>
   </g>
   <g id="patch_16">
    <path d="M 201.96 824.0688 
L 1454.112 824.0688 
" style="fill: none; stroke: #000000; stroke-width: 0.8; stroke-linejoin: miter; stroke-linecap: square"/>
   </g>
   <g id="patch_17">
    <path d="M 201.96 614.375153 
L 1454.112 614.375153 
" style="fill: none; stroke: #000000; stroke-width: 0.8; stroke-linejoin: miter; stroke-linecap: square"/>
   </g>
  </g>
 </g>
 <defs>
  <clipPath id="p93b8ae68c5">
   <rect x="201.96" y="111.1104" width="1252.152" height="209.693647"/>
  </clipPath>
  <clipPath id="pfd094ad192">
   <rect x="201.96" y="362.742776" width="1252.152" height="209.693647"/>
  </clipPath>
  <clipPath id="pf3adc96024">
   <rect x="201.96" y="614.375153" width="1252.152" height="209.693647"/>
  </clipPath>
 </defs>
</svg>
